<?xml version="1.0" encoding="utf-8"?>
<!-- Generator: Adobe Illustrator 26.0.1, SVG Export Plug-In . SVG Version: 6.00 Build 0)  -->
<svg version="1.1" id="Layer_1" xmlns:xodm="http://www.corel.com/coreldraw/odm/2003"
	 xmlns="http://www.w3.org/2000/svg" xmlns:xlink="http://www.w3.org/1999/xlink" x="0px" y="0px" viewBox="0 0 320.8 406.4"
	 style="enable-background:new 0 0 320.8 406.4;" xml:space="preserve">
<style type="text/css">
	.st0{fill:#4D4D4D;}
	.st1{fill-rule:evenodd;clip-rule:evenodd;fill:url(#SVGID_1_);}
	.st2{fill-rule:evenodd;clip-rule:evenodd;fill:url(#SVGID_00000029025893987814905000000011799084179361106588_);}
</style>
<g id="Layer_x0020_1">
	<g id="_3266850503168">
		<path class="st0" d="M291.5,28.3c8.1,0,15.4,3.3,20.7,8.6s8.6,12.6,8.6,20.7s-3.3,15.4-8.6,20.7s-12.6,8.6-20.7,8.6
			c-8.1,0-15.4-3.3-20.7-8.6s-8.6-12.6-8.6-20.7c0-8.1,3.3-15.4,8.6-20.7S283.4,28.3,291.5,28.3z M307.6,41.5
			c-4.1-4.1-9.8-6.7-16.1-6.7c-6.3,0-12,2.6-16.1,6.7c-4.1,4.1-6.7,9.8-6.7,16.1c0,6.3,2.6,12,6.7,16.1c4.1,4.1,9.8,6.7,16.1,6.7
			c6.3,0,12-2.6,16.1-6.7c4.1-4.1,6.7-9.8,6.7-16.1C314.3,51.3,311.8,45.6,307.6,41.5z"/>
		
			<linearGradient id="SVGID_1_" gradientUnits="userSpaceOnUse" x1="3587.439" y1="-1600.7196" x2="3350.3091" y2="-2717.5796" gradientTransform="matrix(0.2121 0 0 -0.2121 -653.1701 -178.1982)">
			<stop  offset="0" style="stop-color:#ED3237"/>
			<stop  offset="1" style="stop-color:#F87421"/>
		</linearGradient>
		<path class="st1" d="M91,405.6h3.2l8.1-1.1c87.4-13.8,134.5-125.5,58.2-188.8c-68.8-57.1-99.3-96.5-69.8-179.5H0v178.7v8.6v86.7
			C0,362.7,41,405.6,91,405.6L91,405.6z M232.7,178.8c8.8-14.3,13.9-31,13.9-48.9c0-51.5-42.1-93.7-93.7-93.7h-39.6
			c1.9,15.4,7.2,30.7,15.6,45.8c5.2,8.2,11.5,16.2,18.6,23.9c14.5,16,31.3,30.2,48.1,43.7C207.9,159.5,220.4,169.1,232.7,178.8
			L232.7,178.8z"/>
		
			<linearGradient id="SVGID_00000024692273638834794850000005305749862443785404_" gradientUnits="userSpaceOnUse" x1="4175.6538" y1="-2703.4124" x2="3730.3037" y2="-903.9324" gradientTransform="matrix(0.2121 0 0 -0.2121 -653.1701 -178.1982)">
			<stop  offset="0" style="stop-color:#ED3237"/>
			<stop  offset="1" style="stop-color:#F87421"/>
		</linearGradient>
		<path style="fill-rule:evenodd;clip-rule:evenodd;fill:url(#SVGID_00000024692273638834794850000005305749862443785404_);" d="
			M177.4,204.8C42.5,115.9,90.9,62.9,109.3,0c-21.8,87.7,67.2,139.5,136.3,196.4c103.9,85.6,60.7,221.1-106.4,209.3
			C232.9,391.1,285.9,276.2,177.4,204.8L177.4,204.8z"/>
		<path class="st0" d="M280.8,70.8V43.5h11.6c2.9,0,5.1,0.2,6.4,0.7c1.3,0.5,2.4,1.4,3.2,2.6c0.8,1.3,1.2,2.7,1.2,4.3
			c0,2.1-0.6,3.7-1.8,5.1c-1.2,1.3-3,2.2-5.4,2.5c1.2,0.7,2.2,1.5,2.9,2.3c0.8,0.8,1.8,2.3,3.1,4.4l3.3,5.3h-6.6l-4-6
			c-1.4-2.1-2.4-3.5-2.9-4c-0.5-0.5-1.1-0.9-1.7-1.1c-0.6-0.2-1.5-0.3-2.8-0.3h-1.1v11.4L280.8,70.8L280.8,70.8z M286.3,55.1h4.1
			c2.6,0,4.3-0.1,5-0.3c0.7-0.2,1.2-0.6,1.5-1.2c0.4-0.5,0.6-1.2,0.6-2.1c0-0.9-0.2-1.7-0.7-2.2c-0.5-0.6-1.2-0.9-2.1-1.1
			c-0.5-0.1-1.8-0.1-4-0.1h-4.3L286.3,55.1L286.3,55.1z"/>
	</g>
</g>
</svg>
