<?xml version="1.0" encoding="UTF-8"?>
<!DOCTYPE svg PUBLIC "-//W3C//DTD SVG 1.1//EN" "http://www.w3.org/Graphics/SVG/1.1/DTD/svg11.dtd">
<!-- Creator: CorelDRAW 2021 (64-Bit) -->
<svg xmlns="http://www.w3.org/2000/svg" xml:space="preserve" width="10.8384in" height="9.64931in" version="1.1" style="shape-rendering:geometricPrecision; text-rendering:geometricPrecision; image-rendering:optimizeQuality; fill-rule:evenodd; clip-rule:evenodd"
viewBox="0 0 18142.08 16151.66"
 xmlns:xlink="http://www.w3.org/1999/xlink"
 xmlns:xodm="http://www.corel.com/coreldraw/odm/2003">
 <defs>
  <style type="text/css">
   <![CDATA[
    .fil0 {fill:#373435;fill-rule:nonzero}
    .fil1 {fill:#373435;fill-rule:nonzero}
    .fil2 {fill:url(#id4)}
    .fil3 {fill:url(#id5)}
   ]]>
  </style>
     <mask id="id0">
  <linearGradient id="id1" gradientUnits="userSpaceOnUse" x1="10768.23" y1="14825.41" x2="16351.64" y2="14825.41">
   <stop offset="0" style="stop-opacity:1; stop-color:white"/>
   <stop offset="1" style="stop-opacity:0; stop-color:white"/>
  </linearGradient>
      <rect style="fill:url(#id1)" x="9071.04" y="14825.42" width="7436.62" height="69.75"/>
     </mask>
     <mask id="id2">
  <linearGradient id="id3" gradientUnits="userSpaceOnUse" x1="7373.84" y1="14825.41" x2="1790.43" y2="14825.41">
   <stop offset="0" style="stop-opacity:1; stop-color:white"/>
   <stop offset="1" style="stop-opacity:0; stop-color:white"/>
  </linearGradient>
      <rect style="fill:url(#id3)" x="1634.42" y="14825.42" width="7436.62" height="69.75"/>
     </mask>
  <linearGradient id="id4" gradientUnits="userSpaceOnUse" x1="7912.82" y1="3430.64" x2="6831.49" y2="8523.56">
   <stop offset="0" style="stop-opacity:1; stop-color:#ED3237"/>
   <stop offset="1" style="stop-opacity:1; stop-color:#F87421"/>
  </linearGradient>
  <linearGradient id="id5" gradientUnits="userSpaceOnUse" xlink:href="#id4" x1="10084.85" y1="8659.3" x2="8054.07" y2="453.54">
  </linearGradient>
 </defs>
 <g id="Layer_x0020_1">
  <metadata id="CorelCorpID_0Corel-Layer"/>
  <g id="_3267065204592">
   <path class="fil0" d="M129.75 10186.5l1046.85 0c114.66,0 221.83,18.07 321.53,54.21 99.7,36.15 186.31,85.99 259.85,149.55 73.52,63.56 131.48,137.71 173.85,222.46 42.37,84.74 63.55,175.72 63.55,272.93 0,142.08 -34.27,261.1 -102.81,357.05 -68.54,95.96 -153.92,168.87 -256.11,218.72l0 29.91c137.09,49.85 247.38,127.75 330.88,233.68 83.5,105.93 125.25,237.41 125.25,394.44 0,114.66 -23.05,217.47 -69.17,308.45 -46.11,90.98 -109.05,168.87 -188.8,233.68 -79.76,64.81 -172.61,114.66 -278.54,149.55 -105.93,34.89 -219.96,52.34 -342.09,52.34l-1084.24 0 0 -2676.97zm1009.47 1091.72c117.15,0 207.5,-31.78 271.06,-95.34 63.56,-63.56 95.34,-138.96 95.34,-226.2 0,-87.24 -31.16,-162.02 -93.47,-224.32 -62.32,-62.32 -148.31,-93.47 -257.98,-93.47l-519.69 0 0 639.33 504.74 0zm56.08 1121.63c127.12,0 224.32,-31.78 291.62,-95.34 67.3,-63.55 100.95,-145.18 100.95,-244.89 0,-99.69 -34.27,-182.57 -102.81,-248.62 -68.54,-66.05 -170.11,-99.08 -304.72,-99.08l-545.86 0 0 687.93 560.82 0zm1286.14 -2213.35l975.82 0c134.6,0 256.73,21.19 366.41,63.56 109.66,42.37 203.76,100.95 282.28,175.72 78.51,74.78 138.96,163.88 181.33,267.32 42.37,103.44 63.55,216.22 63.55,338.36 0,89.73 -14.95,173.85 -44.86,252.37 -29.91,78.51 -71.03,149.55 -123.38,213.11 -52.34,63.56 -113.41,119.64 -183.2,168.25 -69.79,48.6 -143.31,86.61 -220.58,114.03l-3.74 26.18 717.85 1028.16 0 29.91 -579.51 0 -691.68 -1005.74 -235.54 0 0 1005.74 -504.74 0 0 -2676.97zm972.08 1207.62c114.66,0 208.75,-34.89 282.28,-104.68 73.53,-69.79 110.3,-158.27 110.3,-265.45 0,-47.36 -8.11,-93.47 -24.3,-138.34 -16.2,-44.86 -40.5,-84.74 -72.91,-119.64 -32.4,-34.9 -72.91,-62.94 -121.51,-84.12 -48.61,-21.19 -104.07,-31.78 -166.38,-31.78l-474.82 0 0 744.01 467.35 0zm1345.96 -1207.62l504.73 0 0 2676.97 -504.73 0 0 -2676.97zm2276.91 1207.62l1312.31 0c7.47,29.91 13.71,66.05 18.69,108.43 4.99,42.37 7.48,84.75 7.48,127.12 0,171.98 -26.17,334 -78.51,486.04 -52.34,152.05 -134.59,287.89 -246.76,407.53 -119.64,127.12 -262.96,225.57 -429.96,295.37 -167,69.79 -357.68,104.68 -572.03,104.68 -194.41,0 -377.62,-34.89 -549.6,-104.68 -171.98,-69.79 -321.53,-167 -448.65,-291.63 -127.12,-124.62 -228.07,-272.31 -302.84,-443.04 -74.78,-170.74 -112.16,-357.05 -112.16,-558.95 0,-201.89 37.39,-388.21 112.16,-558.95 74.78,-170.73 175.72,-318.42 302.84,-443.04 127.12,-124.63 276.67,-221.84 448.65,-291.63 171.99,-69.79 355.19,-104.68 549.6,-104.68 216.85,0 410.64,37.39 581.38,112.16 170.74,74.78 317.18,178.21 439.31,310.32l-347.71 340.23c-87.24,-92.23 -184.45,-162.64 -291.62,-211.24 -107.18,-48.6 -235.55,-72.91 -385.09,-72.91 -122.13,0 -238.04,21.81 -347.71,65.43 -109.67,43.61 -205.63,105.3 -287.89,185.07 -82.25,79.76 -147.68,176.34 -196.28,289.76 -48.61,113.41 -72.91,239.9 -72.91,379.48 0,139.58 24.3,266.08 72.91,379.49 48.6,113.41 114.66,210 198.16,289.76 83.5,79.76 180.09,141.45 289.75,185.07 109.67,43.62 226.82,65.43 351.45,65.43 142.07,0 262.34,-20.56 360.8,-61.69 98.46,-41.12 182.58,-94.09 252.37,-158.89 49.85,-44.86 92.85,-101.57 128.99,-170.12 36.14,-68.54 64.18,-145.18 84.12,-229.93l-841.22 0 0 -429.96zm1757.23 -1207.62l504.73 0 0 1069.29 1125.37 0 0 -1069.29 504.74 0 0 2676.97 -504.74 0 0 -1129.12 -1125.37 0 0 1129.12 -504.73 0 0 -2676.97zm3241.52 2676.97l0 -2198.4 -747.76 0 0 -478.57 2000.24 0 0 478.57 -747.75 0 0 2198.4 -504.74 0zm2116.14 -2198.4l0 620.64 1073.03 0 0 478.56 -1073.03 0 0 620.64 1192.68 0 0 478.57 -1697.41 0 0 -2676.97 1697.41 0 0 478.57 -1192.68 0zm1656.28 -478.57l586.99 0 1076.76 1794.61 29.91 0 -29.91 -515.95 0 -1278.66 501 0 0 2676.97 -530.91 0 -1136.6 -1895.56 -29.91 0 29.91 515.95 0 1379.62 -497.25 0 0 -2676.97z"/>
   <path class="fil0" d="M840.26 14084.82c0,90.87 -33.35,163.86 -100.06,218.97 -67.67,54.14 -149.84,81.2 -246.52,81.2 -86.03,0 -161.92,-25.13 -227.66,-75.4 -65.74,-50.27 -111.18,-118.91 -136.31,-205.92l127.61 -52.2c8.71,30.93 20.78,58.97 36.25,84.11 15.47,25.13 33.6,46.64 54.38,64.52 20.78,17.89 43.74,31.9 68.88,42.06 25.13,10.15 51.72,15.22 79.75,15.22 60.91,0 110.69,-15.71 149.36,-47.13 38.67,-31.42 58.01,-73.23 58.01,-125.43 0,-43.51 -15.95,-80.72 -47.85,-111.66 -29.97,-29.96 -86.05,-58.97 -168.22,-87 -83.13,-29.97 -134.86,-50.28 -155.16,-60.91 -110.21,-56.07 -165.32,-138.73 -165.32,-247.97 0,-76.37 30.45,-141.63 91.36,-195.76 61.87,-54.14 137.76,-81.2 227.67,-81.2 79.27,0 147.91,20.3 205.92,60.91 58,39.63 96.67,89.42 116,149.36l-124.71 52.21c-11.6,-38.67 -34.56,-70.82 -68.88,-96.43 -34.31,-25.62 -76.13,-38.43 -125.43,-38.43 -52.2,0 -96.19,14.5 -131.96,43.5 -35.76,27.07 -53.65,62.35 -53.65,105.86 0,35.77 14.02,66.7 42.05,92.81 30.93,26.1 98.13,57.04 201.56,92.81 105.37,35.77 180.54,79.52 225.49,131.23 44.95,51.72 67.43,115.29 67.43,190.69zm1177.48 -242.17c0,153.71 -51.23,282.29 -153.71,385.73 -103.44,104.41 -230.08,156.61 -379.93,156.61 -150.81,0 -277.45,-52.21 -379.93,-156.61 -102.47,-103.44 -153.71,-232.02 -153.71,-385.73 0,-153.71 51.23,-282.28 153.71,-385.73 102.47,-104.41 229.12,-156.61 379.93,-156.61 150.81,0 277.45,52.69 379.93,158.06 102.47,103.44 153.71,231.53 153.71,384.28zm-930.96 0c0,119.88 37.7,218.97 113.1,297.27 76.37,78.31 171.11,117.46 284.22,117.46 113.11,0 207.36,-39.15 282.77,-117.46 76.37,-77.33 114.55,-176.43 114.55,-297.27 0,-120.84 -38.18,-219.93 -114.55,-297.27 -75.41,-78.3 -169.66,-117.45 -282.77,-117.45 -113.11,0 -207.85,39.15 -284.22,117.45 -75.4,78.31 -113.1,177.4 -113.1,297.27zm1671.96 519.14l-582.94 0 0 -1038.27 133.42 0 0 910.66 449.53 0 0 127.61zm485.78 23.2c-115.04,0 -207.84,-37.7 -278.42,-113.11 -70.57,-74.43 -105.86,-173.04 -105.86,-295.82l0 -652.54 133.41 0 0 658.35c0,85.07 22.23,152.26 66.7,201.56 44.47,49.3 105.86,73.95 184.16,73.95 78.31,0 139.7,-24.65 184.16,-73.95 44.47,-49.31 66.7,-116.49 66.7,-201.56l0 -658.35 133.41 0 0 652.54c0,125.68 -34.8,225.25 -104.41,298.73 -69.6,73.47 -162.89,110.21 -279.87,110.21zm923.72 -933.87l0 910.66 -133.41 0 0 -910.66 -290.02 0 0 -127.61 713.45 0 0 127.61 -290.02 0zm562.64 910.66l-133.42 0 0 -1038.27 133.42 0 0 1038.27zm1210.83 -519.14c0,153.71 -51.23,282.29 -153.71,385.73 -103.44,104.41 -230.08,156.61 -379.93,156.61 -150.81,0 -277.45,-52.21 -379.93,-156.61 -102.47,-103.44 -153.71,-232.02 -153.71,-385.73 0,-153.71 51.23,-282.28 153.71,-385.73 102.47,-104.41 229.12,-156.61 379.93,-156.61 150.81,0 277.45,52.69 379.93,158.06 102.47,103.44 153.71,231.53 153.71,384.28zm-930.96 0c0,119.88 37.7,218.97 113.1,297.27 76.37,78.31 171.12,117.46 284.22,117.46 113.11,0 207.37,-39.15 282.77,-117.46 76.37,-77.33 114.56,-176.43 114.56,-297.27 0,-120.84 -38.19,-219.93 -114.56,-297.27 -75.4,-78.3 -169.66,-117.45 -282.77,-117.45 -113.1,0 -207.85,39.15 -284.22,117.45 -75.4,78.31 -113.1,177.4 -113.1,297.27zm1222.44 519.14l-133.42 0 0 -1038.27 162.41 0 504.64 807.71 5.8 0 -5.8 -200.11 0 -607.59 133.41 0 0 1038.27 -139.21 0 -527.83 -846.86 -5.81 0 5.81 200.11 0 646.75zm1516.8 -276.97c0,90.87 -33.35,163.86 -100.06,218.97 -67.67,54.14 -149.84,81.2 -246.52,81.2 -86.03,0 -161.92,-25.13 -227.66,-75.4 -65.74,-50.27 -111.18,-118.91 -136.31,-205.92l127.61 -52.2c8.71,30.93 20.78,58.97 36.25,84.11 15.47,25.13 33.6,46.64 54.38,64.52 20.78,17.89 43.74,31.9 68.88,42.06 25.13,10.15 51.72,15.22 79.75,15.22 60.91,0 110.69,-15.71 149.36,-47.13 38.67,-31.42 58.01,-73.23 58.01,-125.43 0,-43.51 -15.95,-80.72 -47.85,-111.66 -29.97,-29.96 -86.05,-58.97 -168.22,-87 -83.13,-29.97 -134.86,-50.28 -155.16,-60.91 -110.21,-56.07 -165.32,-138.73 -165.32,-247.97 0,-76.37 30.45,-141.63 91.36,-195.76 61.87,-54.14 137.76,-81.2 227.67,-81.2 79.27,0 147.91,20.3 205.92,60.91 58,39.63 96.67,89.42 116,149.36l-124.71 52.21c-11.6,-38.67 -34.56,-70.82 -68.88,-96.43 -34.31,-25.62 -76.13,-38.43 -125.43,-38.43 -52.2,0 -96.19,14.5 -131.96,43.5 -35.76,27.07 -53.65,62.35 -53.65,105.86 0,35.77 14.02,66.7 42.05,92.81 30.93,26.1 98.13,57.04 201.56,92.81 105.37,35.77 180.54,79.52 225.49,131.23 44.95,51.72 67.43,115.29 67.43,190.69zm825.11 -784.5c-66.7,79.27 -120.84,173.04 -162.41,281.32 -40.6,106.34 -60.91,210.75 -60.91,313.22 0,103.44 20.3,207.85 60.91,313.22 41.57,108.28 95.71,202.05 162.41,281.32l-98.61 69.6c-80.24,-93.77 -143.56,-198.18 -189.96,-313.22 -45.44,-118.91 -68.15,-235.88 -68.15,-350.93 0,-116.01 22.72,-232.5 68.15,-349.48 45.44,-115.04 108.76,-219.93 189.96,-314.67l98.61 69.6zm1149.93 542.33c0,153.71 -51.23,282.29 -153.71,385.73 -103.44,104.41 -230.08,156.61 -379.93,156.61 -150.81,0 -277.45,-52.21 -379.93,-156.61 -102.47,-103.44 -153.71,-232.02 -153.71,-385.73 0,-153.71 51.23,-282.28 153.71,-385.73 102.47,-104.41 229.12,-156.61 379.93,-156.61 150.81,0 277.45,52.69 379.93,158.06 102.47,103.44 153.71,231.53 153.71,384.28zm-930.96 0c0,119.88 37.7,218.97 113.1,297.27 76.37,78.31 171.11,117.46 284.22,117.46 113.1,0 207.36,-39.15 282.77,-117.46 76.37,-77.33 114.55,-176.43 114.55,-297.27 0,-120.84 -38.19,-219.93 -114.55,-297.27 -75.41,-78.3 -169.67,-117.45 -282.77,-117.45 -113.11,0 -207.85,39.15 -284.22,117.45 -75.4,78.31 -113.1,177.4 -113.1,297.27zm1222.43 98.61l0 420.53 -133.41 0 0 -1038.27 353.83 0c89.91,0 166.28,29.97 229.12,89.91 63.8,59.94 95.71,132.93 95.71,218.97 0,87.97 -31.9,161.44 -95.71,220.42 -61.87,58.97 -138.25,88.45 -229.12,88.45l-220.42 0zm0 -490.13l0 362.53 223.32 0c53.17,0 97.16,-17.89 131.96,-53.66 35.77,-35.77 53.66,-78.31 53.66,-127.61 0,-48.34 -17.89,-90.39 -53.66,-126.16 -34.8,-36.74 -78.78,-55.11 -131.96,-55.11l-223.32 0zm1158.63 933.87c-153.71,0 -282.28,-51.72 -385.73,-155.16 -102.47,-103.44 -153.71,-232.5 -153.71,-387.18 0,-154.67 51.24,-283.25 153.71,-385.73 102.47,-104.41 231.05,-156.61 385.73,-156.61 156.61,0 283.73,56.55 381.38,169.66l-95.71 92.81c-74.44,-89.91 -169.66,-134.86 -285.67,-134.86 -115.04,0 -211.23,38.66 -288.57,116 -76.37,76.37 -114.55,175.95 -114.55,298.72 0,122.78 38.18,222.35 114.55,298.72 77.34,77.34 173.53,116.01 288.57,116.01 120.84,0 225.73,-50.76 314.67,-152.26l97.16 94.26c-49.31,58.97 -109.72,104.65 -181.27,137.03 -71.54,32.39 -148.39,48.58 -230.57,48.58zm591.64 -1154.28c40.6,46.4 76.62,95.7 108.04,147.91 31.41,52.21 58.24,107.79 80.48,166.76 46.4,116.01 69.6,232.5 69.6,349.48 0,116.97 -23.2,233.95 -69.6,350.93 -44.47,114.07 -107.31,218.48 -188.51,313.22l-98.61 -69.6c66.7,-79.27 120.84,-173.04 162.41,-281.32 40.6,-105.37 60.91,-209.77 60.91,-313.22 0,-102.47 -20.3,-206.88 -60.91,-313.22 -41.57,-108.27 -95.71,-202.04 -162.41,-281.32l98.61 -69.6zm907.76 710.54l0 420.53 -133.41 0 0 -1038.27 353.83 0c89.91,0 166.28,29.97 229.12,89.91 63.8,59.94 95.71,132.93 95.71,218.97 0,87.97 -31.9,161.44 -95.71,220.42 -61.87,58.97 -138.25,88.45 -229.12,88.45l-220.42 0zm0 -490.13l0 362.53 223.32 0c53.17,0 97.16,-17.89 131.96,-53.66 35.77,-35.77 53.66,-78.31 53.66,-127.61 0,-48.34 -17.89,-90.39 -53.66,-126.16 -34.8,-36.74 -78.78,-55.11 -131.96,-55.11l-223.32 0zm1247.09 881.66l-139.21 0 -365.42 -1038.27 147.91 0 284.22 842.51 5.8 0 295.82 -842.51 147.91 0 -377.03 1038.27zm852.66 -910.66l0 910.66 -133.41 0 0 -910.66 -290.02 0 0 -127.6 713.45 0 0 127.6 -290.02 0zm504.64 820.76c0,27.07 -9.43,50.27 -28.28,69.6 -18.85,19.34 -42.29,29 -70.33,29 -27.07,0 -50.28,-9.67 -69.6,-29 -19.34,-19.34 -29,-42.54 -29,-69.6 0,-28.04 9.67,-51.48 29,-70.33 19.33,-18.85 42.53,-28.28 69.6,-28.28 28.03,0 51.47,9.42 70.33,28.28 18.85,18.85 28.28,42.29 28.28,70.33zm1075.97 89.9l-582.94 0 0 -1038.27 133.41 0 0 910.66 449.53 0 0 127.61zm384.28 -910.66l0 910.66 -133.42 0 0 -910.66 -290.01 0 0 -127.6 713.44 0 0 127.6 -290.01 0zm429.23 910.66l0 -1038.27 317.57 0c158.54,0 285.91,47.85 382.1,143.56 96.19,95.71 144.29,220.9 144.29,375.58 0,155.64 -48.09,281.07 -144.29,376.3 -96.19,95.23 -223.55,142.83 -382.1,142.83l-317.57 0zm133.41 -910.66l0 783.05 184.16 0c120.84,0 216.06,-34.56 285.67,-103.68 69.6,-69.12 104.41,-165.07 104.41,-287.84 0,-121.81 -34.8,-217.52 -104.41,-287.12 -69.61,-69.61 -164.83,-104.41 -285.67,-104.41l-184.16 0z"/>
   <path class="fil1" d="M228.2 16136.59l-75.35 0 0 -689.92 -152.86 0 0 -75.36 381.02 0 0 75.36 -152.82 0 0 689.92zm452.03 0l-75.32 0 0 -765.28 75.32 0 0 343.36 363.82 0 0 -343.36 75.35 0 0 765.28 -75.35 0 0 -348.74 -363.82 0 0 348.74zm803.63 -421.92l321.84 0 0 75.36 -321.84 0 0 272.31 321.84 0 0 74.25 -397.16 0 0 -765.28 397.16 0 0 75.36 -321.84 0 0 268zm1285.32 -268l0 291.69 110.84 0c61.74,0 107.29,-11.66 136.71,-35.18 29.42,-23.49 44.11,-59.73 44.11,-108.87 0,-51.15 -14.87,-88.42 -44.49,-112.12 -29.6,-23.69 -77.12,-35.52 -142.61,-35.52l-104.57 0zm-75.35 -75.36l162.54 0c46.63,0 83.94,2.52 111.91,7.38 28.01,4.83 51.32,12.73 69.81,23.66 33.73,20.28 59.56,46.66 77.49,79.11 18.1,32.28 27.07,68.87 27.07,109.43 0,38.56 -8.07,74.25 -24.38,106.91 -16.31,32.83 -38.93,58.84 -67.98,78.05 -20.28,13.62 -44.69,23.66 -72.84,29.76 -28.17,6.11 -64.04,9.17 -107.81,9.17l-100.46 0 0 321.8 -75.35 0 0 -765.28zm738 379.23c0,93.29 30.31,171.33 90.95,234.48 60.63,62.94 135.43,94.53 224.41,94.53 86.8,0 160.2,-31.94 220.1,-95.59 59.9,-63.87 89.87,-142.27 89.87,-235.55 0,-86.84 -30.87,-161.81 -92.56,-224.58 -61.53,-62.97 -135.81,-94.36 -222.8,-94.36 -35.35,0 -69.42,6.1 -102.08,18.1 -32.83,12.03 -62.97,29.97 -90.77,53.28 -36.42,30.87 -65.12,68.53 -85.91,113.02 -20.83,44.49 -31.22,90.05 -31.22,136.68zm-78.59 -1.25c0,-53.28 10.24,-104.05 30.69,-152.47 20.63,-48.29 50.22,-91.5 89.15,-129.71 37.49,-36.76 78.74,-64.38 123.78,-83.05 45,-18.49 93.8,-27.83 146.36,-27.83 53.46,0 103.15,9.34 148.91,28.18 45.73,18.66 87.54,46.66 125.37,83.77 38.93,38.21 68.18,80.91 87.73,128.08 19.55,47.35 29.42,98.32 29.42,153.02 0,54.18 -8.42,104.05 -25.28,149.44 -16.69,45.39 -42,86.63 -75.53,123.78 -38.93,42.69 -82.88,74.8 -132.05,96.49 -48.98,21.73 -102.22,32.66 -159.64,32.66 -109.95,0 -202.34,-38.55 -276.97,-115.88 -74.63,-77.15 -111.94,-172.74 -111.94,-286.49zm991.31 168.82l72.11 0c1.41,47.36 14.9,84.84 40.35,113.02 25.48,27.97 59.01,41.97 100.46,41.97 44.66,0 80.01,-14 106.19,-41.8 26.21,-27.83 39.28,-65.66 39.28,-113.19 0,-69.42 -53.63,-121.81 -161.06,-157.16 -8.45,-2.86 -14.73,-4.83 -19.04,-6.27 -55.97,-19.38 -96.15,-43.76 -120.91,-73.36 -24.55,-29.62 -36.94,-68.18 -36.94,-115.91 0,-60.97 19.01,-110.84 57.04,-149.78 38.04,-38.93 87.01,-58.28 147.27,-58.28 57.42,0 102.98,17.76 136.7,53.08 33.56,35.35 52.39,85.22 56.15,149.26l-71.04 0c-3.76,-41.63 -16.32,-73.74 -37.32,-96.33 -20.97,-22.62 -49.31,-33.9 -84.67,-33.9 -37.83,0 -68.69,12.38 -92.73,36.93 -24.04,24.77 -36.07,56.15 -36.07,94.36 0,19.93 3.58,37.14 10.79,51.83 7.17,14.56 18.62,27.63 34.42,39.67 16.14,11.83 47.01,25.11 92.56,39.83 26.21,8.42 46.28,15.24 59.94,20.46 49.66,19.34 85.56,43.94 107.42,73.91 21.9,29.93 32.83,69.22 32.83,117.84 0,74.25 -20.28,134.01 -60.8,179.4 -40.38,45.39 -94.18,67.98 -161.09,67.98 -62.42,0 -113.01,-21.35 -151.95,-64.21 -38.93,-42.87 -58.84,-99.39 -59.9,-169.34zm646.51 0l72.11 0c1.41,47.36 14.89,84.84 40.35,113.02 25.48,27.97 59.01,41.97 100.46,41.97 44.66,0 80.02,-14 106.19,-41.8 26.21,-27.83 39.28,-65.66 39.28,-113.19 0,-69.42 -53.62,-121.81 -161.05,-157.16 -8.45,-2.86 -14.73,-4.83 -19.04,-6.27 -55.98,-19.38 -96.16,-43.76 -120.91,-73.36 -24.55,-29.62 -36.94,-68.18 -36.94,-115.91 0,-60.97 19.01,-110.84 57.04,-149.78 38.04,-38.93 87.01,-58.28 147.26,-58.28 57.43,0 102.98,17.76 136.71,53.08 33.56,35.35 52.39,85.22 56.15,149.26l-71.05 0c-3.76,-41.63 -16.31,-73.74 -37.31,-96.33 -20.97,-22.62 -49.32,-33.9 -84.67,-33.9 -37.83,0 -68.7,12.38 -92.73,36.93 -24.04,24.77 -36.07,56.15 -36.07,94.36 0,19.93 3.58,37.14 10.79,51.83 7.17,14.56 18.62,27.63 34.42,39.67 16.14,11.83 47.01,25.11 92.56,39.83 26.21,8.42 46.28,15.24 59.94,20.46 49.66,19.34 85.56,43.94 107.43,73.91 21.9,29.93 32.83,69.22 32.83,117.84 0,74.25 -20.28,134.01 -60.8,179.4 -40.38,45.39 -94.18,67.98 -161.09,67.98 -62.42,0 -113.02,-21.35 -151.95,-64.21 -38.93,-42.87 -58.84,-99.39 -59.9,-169.34zm761.66 218.48l-75.32 0 0 -765.28 75.32 0 0 765.28zm360.57 -361.63l0 288.45 105.63 0c61.91,0 107.85,-11.66 137.44,-35.18 29.59,-23.49 44.32,-59.56 44.32,-108.33 0,-48.62 -15.07,-85.04 -45.21,-108.91 -30.14,-24.04 -75.7,-36.04 -136.54,-36.04l-105.63 0zm0 -330.43l0 257.25 45.21 0c74.25,0 126.09,-10.25 155.68,-30.7 29.62,-20.45 44.49,-54.01 44.49,-100.64 0,-43.76 -14.35,-75.7 -43.04,-95.81 -28.69,-20.07 -74.63,-30.11 -137.78,-30.11l-64.56 0zm-72.11 -73.22l142.61 0c86.28,0 149.78,16.35 190.51,49.18 40.56,32.63 60.8,83.77 60.8,153.19 0,34.97 -6.79,64.94 -20.46,89.67 -13.62,24.94 -33.9,45.21 -61.14,61.01 41.25,17.21 72.11,41.25 92.73,72.29 20.63,31.04 30.83,69.08 30.83,113.91 0,77.67 -21.35,134.92 -64.22,171.33 -42.87,36.39 -110.32,54.7 -202.33,54.7l-169.34 0 0 -765.28zm768.11 765.28l-75.32 0 0 -765.28 75.32 0 0 765.28zm632.89 0l-344.43 0 0 -765.28 75.32 0 0 691.03 269.11 0 0 74.25zm319.63 0l-75.32 0 0 -765.28 75.32 0 0 765.28zm452.07 0l-75.36 0 0 -689.92 -152.85 0 0 -75.36 381.02 0 0 75.36 -152.81 0 0 689.92zm450.96 0l-75.32 0 0 -765.28 75.32 0 0 765.28zm363.78 -421.92l321.84 0 0 75.36 -321.84 0 0 272.31 321.84 0 0 74.25 -397.16 0 0 -765.28 397.16 0 0 75.36 -321.84 0 0 268zm570.29 203.44l72.11 0c1.42,47.36 14.9,84.84 40.35,113.02 25.49,27.97 59.01,41.97 100.46,41.97 44.66,0 80.01,-14 106.19,-41.8 26.22,-27.83 39.28,-65.66 39.28,-113.19 0,-69.42 -53.63,-121.81 -161.06,-157.16 -8.45,-2.86 -14.72,-4.83 -19.03,-6.27 -55.98,-19.38 -96.16,-43.76 -120.91,-73.36 -24.55,-29.62 -36.94,-68.18 -36.94,-115.91 0,-60.97 19,-110.84 57.04,-149.78 38.04,-38.93 87.01,-58.28 147.26,-58.28 57.42,0 102.98,17.76 136.71,53.08 33.56,35.35 52.38,85.22 56.15,149.26l-71.05 0c-3.76,-41.63 -16.31,-73.74 -37.31,-96.33 -20.97,-22.62 -49.32,-33.9 -84.67,-33.9 -37.83,0 -68.7,12.38 -92.74,36.93 -24.03,24.77 -36.07,56.15 -36.07,94.36 0,19.93 3.59,37.14 10.79,51.83 7.18,14.56 18.62,27.63 34.42,39.67 16.14,11.83 47.01,25.11 92.56,39.83 26.22,8.42 46.29,15.24 59.94,20.46 49.66,19.34 85.56,43.94 107.43,73.91 21.9,29.93 32.83,69.22 32.83,117.84 0,74.25 -20.28,134.01 -60.81,179.4 -40.38,45.39 -94.18,67.98 -161.09,67.98 -62.43,0 -113.02,-21.35 -151.95,-64.21 -38.94,-42.87 -58.84,-99.39 -59.91,-169.34zm1276.32 218.48l-79.46 0 297.05 -765.28 90.43 0 295.97 765.28 -80.36 0 -91.5 -240.03 -340.63 0 -91.5 240.03zm405.78 -308.9l-145.13 -384.26 -142.98 384.26 288.11 0zm465.14 -381.02l0 689.92 -74.26 0 0 -765.28 205.75 0c45.21,0 81.64,3.41 109.05,10.24 27.63,6.83 52.56,18.11 75.01,33.91 30.49,21.35 54.53,49.87 72.29,85.56 17.76,35.86 26.55,73.73 26.55,113.57 0,59.18 -17.59,110.12 -52.94,152.82 -35.14,42.87 -79.28,66.01 -132.19,69.97l185.13 299.21 -89.35 0 -227.28 -369.19 72.67 0c48.25,0 87.53,-14.18 117.84,-42.49 30.31,-28.34 45.39,-64.77 45.39,-109.26 0,-26.9 -4.65,-51.32 -14,-73.39 -9.13,-22.04 -22.97,-41.42 -41.07,-57.74 -15.07,-13.65 -33.18,-23.52 -54.35,-29.25 -21.35,-5.76 -59.01,-8.62 -113.19,-8.62l-111.05 0zm756.63 268l321.84 0 0 75.36 -321.84 0 0 272.31 321.84 0 0 74.25 -397.16 0 0 -765.28 397.16 0 0 75.36 -321.84 0 0 268zm1292.84 421.92l-75.32 0 0 -765.28 75.32 0 0 765.28zm796.46 -91.5l-8.59 -673.78 74.25 0 0 765.28 -90.39 0 -419.78 -674.85 8.62 674.85 -74.28 0 0 -765.28 90.42 0 419.75 673.78zm356.09 91.5l0 -765.28 377.78 0 0 75.36 -303.53 0 0 268 303.53 0 0 75.36 -303.53 0 0 346.56 -74.25 0zm741.21 0l-75.32 0 0 -765.28 75.32 0 0 765.28zm796.46 -91.5l-8.59 -673.78 74.26 0 0 765.28 -90.4 0 -419.78 -674.85 8.63 674.85 -74.29 0 0 -765.28 90.43 0 419.75 673.78zm430.34 91.5l-75.32 0 0 -765.28 75.32 0 0 765.28zm452.06 0l-75.36 0 0 -689.92 -152.85 0 0 -75.36 381.02 0 0 75.36 -152.82 0 0 689.92zm452.03 -421.92l321.84 0 0 75.36 -321.84 0 0 272.31 321.84 0 0 74.25 -397.15 0 0 -765.28 397.15 0 0 75.36 -321.84 0 0 268z"/>
   <g>
    <path class="fil0" d="M12041.24 609.37c173.54,0 330.66,70.35 444.39,184.08 113.73,113.72 184.08,270.84 184.08,444.38 0,173.54 -70.35,330.65 -184.08,444.39 -113.72,113.73 -270.84,184.08 -444.39,184.08 -173.53,0 -330.65,-70.35 -444.38,-184.08 -113.73,-113.73 -184.08,-270.85 -184.08,-444.39 0,-173.54 70.35,-330.65 184.08,-444.38 113.73,-113.73 270.85,-184.08 444.38,-184.08zm346.62 281.84c-88.7,-88.7 -211.25,-143.56 -346.62,-143.56 -135.36,0 -257.91,54.86 -346.62,143.56 -88.7,88.7 -143.56,211.25 -143.56,346.62 0,135.37 54.86,257.92 143.56,346.62 88.7,88.7 211.26,143.56 346.62,143.56 135.37,0 257.92,-54.86 346.62,-143.56 88.7,-88.7 143.56,-211.26 143.56,-346.62 0,-135.37 -54.86,-257.92 -143.56,-346.62z"/>
    <path class="fil2" d="M7730.99 8720.83l69.29 0 173.5 -22.65c1879.59,-296.76 2892.24,-2697.27 1250.77,-4059.2 -1479.88,-1227.27 -2135.14,-2074.75 -1501.08,-3859.82l-1949.8 0 0 3842.13 0 184.82 0 1864.99c0,1127.37 880.78,2049.72 1957.33,2049.72zm3045.62 -4876.53c189.19,-306.55 298.61,-666.93 298.61,-1051.66 0,-1107.42 -906.06,-2013.48 -2013.48,-2013.48l-851.52 0c39.8,331.22 154.54,659.53 335.97,984.84 112.81,176.63 247.43,347.36 398.94,514.21 311.71,343.25 672.75,649.2 1033.82,939.09 263.71,211.72 532.24,417.43 797.66,627.01z"/>
    <path class="fil3" d="M9588.48 4403.34c-2900.74,-1910.61 -1860.04,-3050.53 -1465.39,-4403.34 -468.29,1885.47 1445.63,2998.42 2930.74,4221.97 2233.11,1839.8 1306.04,4753.33 -2287.76,4498.85 2015.5,-312.69 3153.3,-2782.2 822.42,-4317.48z"/>
    <path class="fil0" d="M11809.9 1522.99l0 -588.07 250.1 0c62.83,0 108.54,5.34 137.02,15.88 28.61,10.54 51.34,29.29 68.44,56.26 17.11,27.1 25.73,57.9 25.73,92.68 0,44.21 -12.86,80.62 -38.74,109.37 -25.87,28.75 -64.47,46.82 -115.94,54.35 25.6,14.92 46.68,31.35 63.24,49.28 16.71,17.93 39.15,49.82 67.35,95.54l71.73 114.71 -141.95 0 -85.14 -128.4c-30.53,-45.58 -51.47,-74.33 -62.83,-86.24 -11.23,-11.77 -23.14,-19.99 -35.73,-24.36 -12.73,-4.38 -32.71,-6.57 -60.09,-6.57l-24.09 0 0 245.57 -119.09 0zm119.09 -339.2l87.88 0c56.94,0 92.4,-2.46 106.64,-7.26 14.1,-4.79 25.32,-13.15 33.26,-24.92 8.08,-11.77 12.05,-26.56 12.05,-44.21 0,-19.85 -5.34,-35.72 -15.88,-48.05 -10.54,-12.18 -25.46,-19.85 -44.63,-22.99 -9.72,-1.38 -38.6,-2.06 -86.65,-2.06l-92.68 0 0 149.48z"/>
   </g>
   <g>
    <path class="fil0" style="mask:url(#id0)" d="M9084.87 14895.17c-7.64,0 -13.84,-15.62 -13.84,-34.87 0,-19.26 6.19,-34.87 13.84,-34.87l7408.94 0c7.64,0 13.84,15.62 13.84,34.87 0,19.26 -6.19,34.87 -13.84,34.87l-7408.94 0z"/>
    <path class="fil0" style="mask:url(#id2)" d="M9057.2 14895.17c7.64,0 13.84,-15.62 13.84,-34.87 0,-19.26 -6.19,-34.87 -13.84,-34.87l-7408.94 0c-7.64,0 -13.84,15.62 -13.84,34.87 0,19.26 6.19,34.87 13.84,34.87l7408.94 0z"/>
   </g>
  </g>
 </g>
</svg>
