<?xml version="1.0" encoding="UTF-8"?>
<!DOCTYPE svg PUBLIC "-//W3C//DTD SVG 1.1//EN" "http://www.w3.org/Graphics/SVG/1.1/DTD/svg11.dtd">
<!-- Creator: CorelDRAW 2021 (64-Bit) -->
<svg xmlns="http://www.w3.org/2000/svg" xml:space="preserve" width="23.7607in" height="6.86798in" version="1.1" style="shape-rendering:geometricPrecision; text-rendering:geometricPrecision; image-rendering:optimizeQuality; fill-rule:evenodd; clip-rule:evenodd"
viewBox="0 0 27022.79 7810.88"
 xmlns:xlink="http://www.w3.org/1999/xlink"
 xmlns:xodm="http://www.corel.com/coreldraw/odm/2003">
 <defs>
  <style type="text/css">
   <![CDATA[
    .fil3 {fill:#A9ABAE}
    .fil0 {fill:#FEFEFE;fill-rule:nonzero}
    .fil1 {fill:url(#id4)}
    .fil2 {fill:url(#id5)}
   ]]>
  </style>
     <mask id="id0">
  <linearGradient id="id1" gradientUnits="userSpaceOnUse" x1="19731.59" y1="6528.72" x2="27022.79" y2="6528.72">
   <stop offset="0" style="stop-opacity:1; stop-color:white"/>
   <stop offset="1" style="stop-opacity:0; stop-color:white"/>
  </linearGradient>
      <rect style="fill:url(#id1)" x="16965.67" y="6427.79" width="10061.6" height="105.42"/>
     </mask>
     <mask id="id2">
  <linearGradient id="id3" gradientUnits="userSpaceOnUse" x1="14208.7" y1="6528.72" x2="6917.5" y2="6528.72">
   <stop offset="0" style="stop-opacity:1; stop-color:white"/>
   <stop offset="1" style="stop-opacity:0; stop-color:white"/>
  </linearGradient>
      <rect style="fill:url(#id3)" x="6913.02" y="6427.79" width="10061.6" height="105.42"/>
     </mask>
  <linearGradient id="id4" gradientUnits="userSpaceOnUse" x1="1909.75" y1="3062.72" x2="944.38" y2="7609.45">
   <stop offset="0" style="stop-opacity:1; stop-color:#ED3237"/>
   <stop offset="1" style="stop-opacity:1; stop-color:#F87421"/>
  </linearGradient>
  <linearGradient id="id5" gradientUnits="userSpaceOnUse" xlink:href="#id4" x1="3848.83" y1="7730.63" x2="2035.8" y2="404.89">
  </linearGradient>
 </defs>
 <g id="Layer_x0020_1">
  <metadata id="CorelCorpID_0Corel-Layer"/>
  <g id="_3261391964768">
   <path class="fil0" d="M6848.8 754.17l1180.99 0c129.35,0 250.26,20.39 362.74,61.16 112.48,40.77 210.19,97.01 293.14,168.71 82.95,71.7 148.33,155.36 196.13,250.96 47.8,95.6 71.7,198.24 71.7,307.9 0,160.28 -38.66,294.55 -115.99,402.81 -77.33,108.26 -173.63,190.5 -288.93,246.74l0 33.74c154.66,56.24 279.08,144.11 373.28,263.62 94.2,119.5 141.3,267.83 141.3,444.98 0,129.35 -26.01,245.34 -78.03,347.97 -52.02,102.63 -123.02,190.5 -213,263.62 -89.98,73.11 -194.73,129.35 -314.23,168.71 -119.5,39.37 -248.15,59.05 -385.93,59.05l-1223.18 0 0 -3019.98zm1138.82 1231.61c132.16,0 234.09,-35.85 305.8,-107.55 71.7,-71.7 107.55,-156.76 107.55,-255.18 0,-98.42 -35.15,-182.77 -105.45,-253.07 -70.3,-70.3 -167.31,-105.45 -291.03,-105.45l-586.28 0 0 721.25 569.41 0zm63.27 1265.36c143.41,0 253.07,-35.85 328.99,-107.55 75.92,-71.7 113.88,-163.79 113.88,-276.27 0,-112.48 -38.66,-205.97 -115.99,-280.49 -77.33,-74.51 -191.91,-111.77 -343.76,-111.77l-615.81 0 0 776.08 632.68 0zm1450.94 -2496.97l1100.86 0c151.85,0 289.63,23.9 413.35,71.7 123.72,47.8 229.87,113.88 318.45,198.24 88.57,84.36 156.76,184.89 204.56,301.58 47.8,116.69 71.7,243.93 71.7,381.72 0,101.23 -16.87,196.13 -50.61,284.7 -33.74,88.57 -80.14,168.71 -139.19,240.42 -59.05,71.71 -127.95,134.97 -206.68,189.81 -78.73,54.83 -161.68,97.71 -248.85,128.64l-4.22 29.52 809.83 1159.91 0 33.74 -653.77 0 -780.3 -1134.6 -265.73 0 0 1134.6 -569.41 0 0 -3019.98zm1096.64 1362.37c129.35,0 235.5,-39.37 318.45,-118.1 82.95,-78.73 124.43,-178.55 124.43,-299.47 0,-53.43 -9.14,-105.45 -27.42,-156.06 -18.28,-50.61 -45.69,-95.6 -82.25,-134.97 -36.55,-39.37 -82.25,-71 -137.08,-94.9 -54.83,-23.9 -117.4,-35.85 -187.7,-35.85l-535.67 0 0 839.35 527.23 0zm1518.43 -1362.37l569.41 0 0 3019.98 -569.41 0 0 -3019.98zm2568.67 1362.37l1480.46 0c8.44,33.74 15.47,74.51 21.09,122.32 5.62,47.81 8.44,95.61 8.44,143.41 0,194.02 -29.52,376.79 -88.57,548.32 -59.05,171.52 -151.84,324.77 -278.38,459.74 -134.97,143.41 -296.66,254.48 -485.05,333.21 -188.4,78.73 -403.51,118.1 -645.33,118.1 -219.33,0 -426,-39.37 -620.02,-118.1 -194.02,-78.73 -362.74,-188.4 -506.14,-328.99 -143.41,-140.59 -257.29,-307.2 -341.65,-499.81 -84.36,-192.62 -126.53,-402.81 -126.53,-630.57 0,-227.76 42.18,-437.95 126.53,-630.57 84.36,-192.61 198.24,-359.22 341.65,-499.81 143.41,-140.6 312.12,-250.26 506.14,-328.99 194.02,-78.73 400.7,-118.1 620.02,-118.1 244.63,0 463.26,42.18 655.88,126.53 192.61,84.36 357.82,201.05 495.6,350.08l-392.26 383.82c-98.42,-104.04 -208.08,-183.48 -328.99,-238.31 -120.92,-54.83 -265.73,-82.25 -434.44,-82.25 -137.78,0 -268.54,24.6 -392.26,73.81 -123.72,49.21 -231.98,118.8 -324.77,208.78 -92.79,89.98 -166.61,198.95 -221.44,326.89 -54.83,127.94 -82.25,270.64 -82.25,428.11 0,157.47 27.42,300.17 82.25,428.11 54.83,127.94 129.35,236.91 223.55,326.89 94.2,89.98 203.16,159.57 326.88,208.78 123.72,49.21 255.89,73.81 396.48,73.81 160.28,0 295.95,-23.2 407.02,-69.59 111.07,-46.4 205.97,-106.15 284.7,-179.26 56.24,-50.61 104.74,-114.58 145.51,-191.92 40.77,-77.33 72.41,-163.79 94.9,-259.4l-949.01 0 0 -485.05zm1982.39 -1362.37l569.41 0 0 1206.31 1269.58 0 0 -1206.31 569.41 0 0 3019.98 -569.41 0 0 -1273.79 -1269.58 0 0 1273.79 -569.41 0 0 -3019.98zm3656.88 3019.98l0 -2480.1 -843.57 0 0 -539.89 2256.55 0 0 539.89 -843.57 0 0 2480.1 -569.41 0zm2387.3 -2480.1l0 700.16 1210.52 0 0 539.89 -1210.52 0 0 700.16 1345.5 0 0 539.89 -1914.9 0 0 -3019.98 1914.9 0 0 539.89 -1345.5 0zm1868.51 -539.89l662.2 0 1214.74 2024.57 33.74 0 -33.74 -582.06 0 -1442.5 565.19 0 0 3019.98 -598.94 0 -1282.23 -2138.45 -33.74 0 33.74 582.06 0 1556.39 -560.97 0 0 -3019.98z"/>
   <path class="fil0" d="M7650.39 5499.69c0,102.51 -37.62,184.85 -112.88,247.02 -76.34,61.07 -169.04,91.61 -278.1,91.61 -97.06,0 -182.67,-28.36 -256.83,-85.07 -74.17,-56.71 -125.42,-134.14 -153.78,-232.3l143.96 -58.89c9.81,34.9 23.44,66.53 40.9,94.88 17.45,28.36 37.9,52.62 61.34,72.8 23.45,20.18 49.35,35.99 77.71,47.44 28.36,11.45 58.35,17.18 89.98,17.18 68.71,0 124.87,-17.73 168.5,-53.17 43.62,-35.44 65.43,-82.61 65.43,-141.5 0,-49.08 -18,-91.07 -53.98,-125.97 -33.81,-33.81 -97.07,-66.53 -189.77,-98.16 -93.79,-33.81 -152.14,-56.71 -175.04,-68.71 -124.33,-63.25 -186.49,-156.5 -186.49,-279.74 0,-86.16 34.36,-159.78 103.06,-220.85 69.8,-61.07 155.41,-91.61 256.83,-91.61 89.43,0 166.86,22.9 232.3,68.71 65.43,44.71 109.06,100.88 130.87,168.5l-140.68 58.89c-13.09,-43.62 -38.99,-79.89 -77.71,-108.79 -38.72,-28.9 -85.89,-43.35 -141.51,-43.35 -58.89,0 -108.52,16.36 -148.87,49.07 -40.35,30.54 -60.53,70.35 -60.53,119.42 0,40.35 15.81,75.25 47.44,104.7 34.9,29.44 110.7,64.34 227.4,104.7 118.87,40.35 203.67,89.7 254.38,148.04 50.71,58.35 76.07,130.06 76.07,215.13zm1328.35 -273.2c0,173.4 -57.8,318.45 -173.4,435.15 -116.7,117.79 -259.57,176.68 -428.61,176.68 -170.13,0 -313,-58.89 -428.61,-176.68 -115.61,-116.69 -173.41,-261.75 -173.41,-435.15 0,-173.41 57.8,-318.46 173.41,-435.15 115.61,-117.79 258.47,-176.68 428.61,-176.68 170.14,0 313.01,59.44 428.61,178.31 115.6,116.69 173.4,261.2 173.4,433.52zm-1050.25 0c0,135.23 42.53,247.02 127.6,335.36 86.16,88.34 193.03,132.51 320.64,132.51 127.6,0 233.94,-44.18 319,-132.51 86.16,-87.24 129.24,-199.03 129.24,-335.36 0,-136.33 -43.08,-248.12 -129.24,-335.36 -85.06,-88.34 -191.4,-132.51 -319,-132.51 -127.6,0 -234.48,44.17 -320.64,132.51 -85.07,88.34 -127.6,200.12 -127.6,335.36zm1886.19 585.65l-657.63 0 0 -1171.31 150.5 0 0 1027.34 507.13 0 0 143.96zm548.03 26.18c-129.78,0 -234.48,-42.54 -314.09,-127.6 -79.61,-83.98 -119.42,-195.22 -119.42,-333.73l0 -736.15 150.5 0 0 742.7c0,95.97 25.08,171.77 75.25,227.39 50.17,55.62 119.42,83.43 207.76,83.43 88.34,0 157.6,-27.81 207.76,-83.43 50.17,-55.62 75.25,-131.42 75.25,-227.39l0 -742.7 150.5 0 0 736.15c0,141.78 -39.26,254.11 -117.79,337 -78.53,82.88 -183.77,124.33 -315.73,124.33zm1042.08 -1053.52l0 1027.35 -150.51 0 0 -1027.35 -327.18 0 0 -143.96 804.87 0 0 143.96 -327.18 0zm634.73 1027.35l-150.51 0 0 -1171.31 150.51 0 0 1171.31zm1365.97 -585.65c0,173.4 -57.8,318.45 -173.4,435.15 -116.7,117.79 -259.57,176.68 -428.61,176.68 -170.13,0 -313,-58.89 -428.61,-176.68 -115.61,-116.69 -173.41,-261.75 -173.41,-435.15 0,-173.41 57.8,-318.46 173.41,-435.15 115.61,-117.79 258.47,-176.68 428.61,-176.68 170.14,0 313.01,59.44 428.61,178.31 115.6,116.69 173.4,261.2 173.4,433.52zm-1050.25 0c0,135.23 42.53,247.02 127.6,335.36 86.16,88.34 193.03,132.51 320.64,132.51 127.6,0 233.94,-44.18 319,-132.51 86.16,-87.24 129.24,-199.03 129.24,-335.36 0,-136.33 -43.08,-248.12 -129.24,-335.36 -85.06,-88.34 -191.4,-132.51 -319,-132.51 -127.6,0 -234.48,44.17 -320.64,132.51 -85.07,88.34 -127.6,200.12 -127.6,335.36zm1379.07 585.65l-150.5 0 0 -1171.31 183.22 0 569.3 911.2 6.54 0 -6.54 -225.76 0 -685.44 150.5 0 0 1171.31 -157.04 0 -595.47 -955.37 -6.55 0 6.55 225.76 0 729.61zm1711.16 -312.45c0,102.51 -37.62,184.85 -112.88,247.02 -76.34,61.07 -169.04,91.61 -278.1,91.61 -97.06,0 -182.67,-28.36 -256.83,-85.07 -74.17,-56.71 -125.42,-134.14 -153.78,-232.3l143.96 -58.89c9.81,34.9 23.44,66.53 40.9,94.88 17.45,28.36 37.9,52.62 61.34,72.8 23.45,20.18 49.35,35.99 77.71,47.44 28.36,11.45 58.35,17.18 89.98,17.18 68.71,0 124.87,-17.73 168.5,-53.17 43.62,-35.44 65.43,-82.61 65.43,-141.5 0,-49.08 -18,-91.07 -53.98,-125.97 -33.81,-33.81 -97.07,-66.53 -189.77,-98.16 -93.79,-33.81 -152.14,-56.71 -175.04,-68.71 -124.33,-63.25 -186.49,-156.5 -186.49,-279.74 0,-86.16 34.36,-159.78 103.06,-220.85 69.8,-61.07 155.41,-91.61 256.83,-91.61 89.43,0 166.86,22.9 232.3,68.71 65.43,44.71 109.06,100.88 130.87,168.5l-140.69 58.89c-13.09,-43.62 -38.99,-79.89 -77.7,-108.79 -38.72,-28.9 -85.89,-43.35 -141.51,-43.35 -58.89,0 -108.52,16.36 -148.87,49.07 -40.35,30.54 -60.53,70.35 -60.53,119.42 0,40.35 15.81,75.25 47.44,104.7 34.9,29.44 110.7,64.34 227.39,104.7 118.88,40.35 203.67,89.7 254.39,148.04 50.71,58.35 76.07,130.06 76.07,215.13zm930.84 -885.03c-75.25,89.43 -136.33,195.22 -183.22,317.37 -45.81,119.97 -68.71,237.75 -68.71,353.35 0,116.7 22.9,234.48 68.71,353.36 46.9,122.15 107.97,227.94 183.22,317.37l-111.24 78.52c-90.52,-105.79 -161.96,-223.57 -214.31,-353.36 -51.25,-134.14 -76.88,-266.1 -76.88,-395.89 0,-130.87 25.63,-262.29 76.88,-394.25 51.26,-129.79 122.7,-248.11 214.31,-354.99l111.24 78.52zm1297.27 611.83c0,173.4 -57.8,318.45 -173.41,435.15 -116.69,117.79 -259.57,176.68 -428.61,176.68 -170.14,0 -313.01,-58.89 -428.61,-176.68 -115.61,-116.69 -173.41,-261.75 -173.41,-435.15 0,-173.41 57.8,-318.46 173.41,-435.15 115.61,-117.79 258.47,-176.68 428.61,-176.68 170.13,0 313,59.44 428.61,178.31 115.61,116.69 173.41,261.2 173.41,433.52zm-1050.25 0c0,135.23 42.53,247.02 127.6,335.36 86.16,88.34 193.03,132.51 320.64,132.51 127.6,0 233.93,-44.18 319,-132.51 86.16,-87.24 129.24,-199.03 129.24,-335.36 0,-136.33 -43.08,-248.12 -129.24,-335.36 -85.06,-88.34 -191.4,-132.51 -319,-132.51 -127.6,0 -234.48,44.17 -320.64,132.51 -85.07,88.34 -127.6,200.12 -127.6,335.36zm1379.07 111.24l0 474.41 -150.5 0 0 -1171.31 399.16 0c101.42,0 187.59,33.81 258.47,101.42 71.98,67.62 107.98,149.96 107.98,247.02 0,99.25 -35.99,182.13 -107.98,248.66 -69.8,66.53 -155.96,99.79 -258.47,99.79l-248.66 0zm0 -552.94l0 408.98 251.93 0c59.98,0 109.6,-20.18 148.86,-60.53 40.35,-40.35 60.53,-88.34 60.53,-143.96 0,-54.53 -20.18,-101.97 -60.53,-142.32 -39.26,-41.44 -88.88,-62.17 -148.86,-62.17l-251.93 0zm1307.09 1053.52c-173.41,0 -318.46,-58.35 -435.15,-175.04 -115.61,-116.7 -173.41,-262.29 -173.41,-436.79 0,-174.5 57.8,-319.55 173.41,-435.15 115.61,-117.79 260.65,-176.68 435.15,-176.68 176.67,0 320.09,63.8 430.24,191.4l-107.97 104.7c-83.98,-101.42 -191.4,-152.14 -322.27,-152.14 -129.78,0 -238.3,43.62 -325.55,130.87 -86.16,86.16 -129.23,198.49 -129.23,337 0,138.5 43.08,250.84 129.23,336.99 87.25,87.25 195.77,130.88 325.55,130.88 136.32,0 254.65,-57.26 354.99,-171.78l109.61 106.34c-55.62,66.53 -123.79,118.06 -204.49,154.59 -80.71,36.54 -167.41,54.8 -260.11,54.8zm667.45 -1302.18c45.81,52.35 86.43,107.97 121.88,166.86 35.44,58.89 65.71,121.6 90.79,188.13 52.35,130.87 78.52,262.29 78.52,394.25 0,131.97 -26.18,263.93 -78.52,395.89 -50.17,128.69 -121.05,246.48 -212.67,353.36l-111.24 -78.52c75.25,-89.43 136.32,-195.22 183.22,-317.37 45.81,-118.87 68.71,-236.66 68.71,-353.36 0,-115.61 -22.9,-233.39 -68.71,-353.35 -46.9,-122.15 -107.97,-227.94 -183.22,-317.37l111.24 -78.52zm1024.08 801.59l0 474.41 -150.5 0 0 -1171.31 399.16 0c101.42,0 187.58,33.81 258.47,101.42 71.98,67.62 107.97,149.96 107.97,247.02 0,99.25 -35.99,182.13 -107.97,248.66 -69.8,66.53 -155.96,99.79 -258.47,99.79l-248.66 0zm0 -552.94l0 408.98 251.93 0c59.99,0 109.61,-20.18 148.87,-60.53 40.35,-40.35 60.53,-88.34 60.53,-143.96 0,-54.53 -20.18,-101.97 -60.53,-142.32 -39.26,-41.44 -88.88,-62.17 -148.87,-62.17l-251.93 0zm1406.88 994.63l-157.05 0 -412.25 -1171.31 166.86 0 320.64 950.46 6.54 0 333.73 -950.46 166.86 0 -425.33 1171.31zm961.91 -1027.35l0 1027.35 -150.51 0 0 -1027.35 -327.18 0 0 -143.96 804.87 0 0 143.96 -327.18 0zm569.29 925.92c0,30.54 -10.63,56.71 -31.9,78.52 -21.27,21.81 -47.72,32.72 -79.34,32.72 -30.54,0 -56.71,-10.9 -78.52,-32.72 -21.81,-21.81 -32.72,-47.99 -32.72,-78.52 0,-31.63 10.9,-58.07 32.72,-79.34 21.81,-21.27 47.99,-31.9 78.52,-31.9 31.62,0 58.07,10.63 79.34,31.9 21.27,21.27 31.9,47.71 31.9,79.34zm1213.84 101.42l-657.63 0 0 -1171.31 150.5 0 0 1027.34 507.13 0 0 143.96zm433.52 -1027.35l0 1027.35 -150.51 0 0 -1027.35 -327.18 0 0 -143.96 804.87 0 0 143.96 -327.18 0zm484.23 1027.35l0 -1171.31 358.26 0c178.86,0 322.55,53.98 431.06,161.95 108.52,107.97 162.78,249.21 162.78,423.7 0,175.59 -54.26,317.09 -162.78,424.52 -108.51,107.42 -252.2,161.14 -431.06,161.14l-358.26 0zm150.51 -1027.35l0 883.39 207.76 0c136.33,0 243.75,-38.99 322.27,-116.97 78.52,-77.98 117.79,-186.22 117.79,-324.73 0,-137.42 -39.26,-245.39 -117.79,-323.91 -78.52,-78.52 -185.95,-117.79 -322.27,-117.79l-207.76 0z"/>
   <path class="fil0" d="M7102.56 7794.12l-83.8 0 0 -767.2 -169.97 0 0 -83.79 423.69 0 0 83.79 -169.93 0 0 767.2zm502.66 0l-83.76 0 0 -850.99 83.76 0 0 381.82 404.56 0 0 -381.82 83.79 0 0 850.99 -83.79 0 0 -387.8 -404.56 0 0 387.8zm893.64 -469.18l357.88 0 0 83.79 -357.88 0 0 302.81 357.88 0 0 82.57 -441.64 0 0 -850.99 441.64 0 0 83.79 -357.88 0 0 298.02zm1429.28 -298.02l0 324.37 123.26 0c68.65,0 119.31,-12.96 152.02,-39.12 32.71,-26.11 49.05,-66.42 49.05,-121.07 0,-56.87 -16.53,-98.33 -49.47,-124.68 -32.91,-26.35 -85.75,-39.5 -158.58,-39.5l-116.28 0zm-83.8 -83.79l180.75 0c51.85,0 93.34,2.8 124.44,8.2 31.14,5.37 57.07,14.15 77.62,26.31 37.51,22.55 66.23,51.89 86.17,87.97 20.13,35.9 30.1,76.59 30.1,121.69 0,42.88 -8.97,82.57 -27.11,118.89 -18.14,36.51 -43.3,65.43 -75.59,86.79 -22.55,15.15 -49.7,26.31 -80.99,33.1 -31.33,6.79 -71.22,10.2 -119.89,10.2l-111.71 0 0 357.85 -83.8 0 0 -850.99zm820.66 421.7c0,103.74 33.71,190.53 101.13,260.74 67.42,69.99 150.6,105.12 249.55,105.12 96.53,0 178.14,-35.51 244.75,-106.31 66.62,-71.03 99.94,-158.2 99.94,-261.93 0,-96.57 -34.32,-179.94 -102.93,-249.74 -68.42,-70.02 -151.02,-104.93 -247.74,-104.93 -39.31,0 -77.2,6.79 -113.52,20.14 -36.51,13.38 -70.03,33.33 -100.94,59.25 -40.5,34.32 -72.41,76.2 -95.53,125.67 -23.16,49.47 -34.71,100.13 -34.71,151.98zm-87.4 -1.38c0,-59.25 11.39,-115.7 34.13,-169.55 22.93,-53.69 55.83,-101.75 99.13,-144.24 41.69,-40.88 87.56,-71.6 137.64,-92.34 50.05,-20.56 104.31,-30.95 162.76,-30.95 59.44,0 114.71,10.39 165.6,31.33 50.85,20.75 97.33,51.89 139.4,93.15 43.3,42.49 75.82,89.97 97.56,142.43 21.75,52.65 32.71,109.34 32.71,170.16 0,60.25 -9.35,115.7 -28.11,166.17 -18.56,50.47 -46.71,96.34 -83.98,137.64 -43.3,47.48 -92.16,83.18 -146.84,107.31 -54.46,24.16 -113.67,36.32 -177.52,36.32 -122.26,0 -225,-42.88 -307.99,-128.86 -82.99,-85.79 -124.48,-192.09 -124.48,-318.58zm1102.34 187.72l80.19 0c1.57,52.66 16.57,94.34 44.87,125.67 28.34,31.1 65.62,46.67 111.71,46.67 49.66,0 88.97,-15.57 118.08,-46.48 29.15,-30.95 43.68,-73.02 43.68,-125.87 0,-77.2 -59.64,-135.45 -179.1,-174.76 -9.39,-3.18 -16.37,-5.37 -21.17,-6.98 -62.24,-21.55 -106.92,-48.67 -134.46,-81.57 -27.3,-32.94 -41.07,-75.82 -41.07,-128.89 0,-67.8 21.13,-123.26 63.43,-166.55 42.3,-43.3 96.76,-64.81 163.76,-64.81 63.85,0 114.52,19.75 152.02,59.02 37.32,39.31 58.26,94.77 62.43,165.98l-79 0c-4.18,-46.29 -18.14,-81.99 -41.49,-107.11 -23.32,-25.16 -54.84,-37.7 -94.15,-37.7 -42.07,0 -76.39,13.77 -103.12,41.08 -26.73,27.53 -40.11,62.43 -40.11,104.93 0,22.16 3.99,41.3 12,57.64 7.97,16.18 20.71,30.72 38.27,44.1 17.95,13.15 52.27,27.92 102.93,44.29 29.15,9.36 51.47,16.95 66.65,22.74 55.23,21.52 95.15,48.86 119.46,82.18 24.35,33.29 36.51,76.97 36.51,131.04 0,82.57 -22.55,149.03 -67.62,199.5 -44.91,50.47 -104.73,75.59 -179.13,75.59 -69.41,0 -125.67,-23.74 -168.97,-71.41 -43.3,-47.67 -65.43,-110.53 -66.61,-188.3zm718.91 0l80.19 0c1.57,52.66 16.57,94.34 44.87,125.67 28.34,31.1 65.62,46.67 111.71,46.67 49.66,0 88.97,-15.57 118.08,-46.48 29.15,-30.95 43.68,-73.02 43.68,-125.87 0,-77.2 -59.64,-135.45 -179.1,-174.76 -9.39,-3.18 -16.37,-5.37 -21.17,-6.98 -62.24,-21.55 -106.92,-48.67 -134.46,-81.57 -27.3,-32.94 -41.07,-75.82 -41.07,-128.89 0,-67.8 21.13,-123.26 63.43,-166.55 42.3,-43.3 96.76,-64.81 163.76,-64.81 63.85,0 114.52,19.75 152.02,59.02 37.32,39.31 58.26,94.77 62.43,165.98l-79 0c-4.18,-46.29 -18.14,-81.99 -41.49,-107.11 -23.32,-25.16 -54.84,-37.7 -94.15,-37.7 -42.07,0 -76.39,13.77 -103.12,41.08 -26.73,27.53 -40.11,62.43 -40.11,104.93 0,22.16 3.99,41.3 12,57.64 7.97,16.18 20.71,30.72 38.27,44.1 17.95,13.15 52.27,27.92 102.93,44.29 29.15,9.36 51.47,16.95 66.65,22.74 55.23,21.52 95.15,48.86 119.46,82.18 24.35,33.29 36.51,76.97 36.51,131.04 0,82.57 -22.55,149.03 -67.62,199.5 -44.91,50.47 -104.73,75.59 -179.13,75.59 -69.41,0 -125.67,-23.74 -168.97,-71.41 -43.3,-47.67 -65.43,-110.53 -66.61,-188.3zm846.96 242.95l-83.76 0 0 -850.99 83.76 0 0 850.99zm400.95 -402.14l0 320.76 117.47 0c68.84,0 119.92,-12.96 152.83,-39.12 32.91,-26.12 49.28,-66.23 49.28,-120.46 0,-54.07 -16.76,-94.57 -50.28,-121.11 -33.51,-26.73 -84.18,-40.08 -151.83,-40.08l-117.47 0zm0 -367.43l0 286.06 50.28 0c82.57,0 140.21,-11.39 173.11,-34.13 32.94,-22.74 49.47,-60.06 49.47,-111.91 0,-48.67 -15.95,-84.18 -47.86,-106.53 -31.91,-22.32 -82.99,-33.48 -153.21,-33.48l-71.79 0zm-80.19 -81.41l158.58 0c95.95,0 166.56,18.17 211.85,54.68 45.1,36.28 67.61,93.15 67.61,170.35 0,38.89 -7.55,72.22 -22.74,99.71 -15.15,27.72 -37.7,50.28 -68,67.84 45.87,19.14 80.19,45.87 103.13,80.38 22.93,34.51 34.28,76.82 34.28,126.67 0,86.37 -23.74,150.03 -71.41,190.53 -47.67,40.46 -122.68,60.82 -225,60.82l-188.3 0 0 -850.99zm854.14 850.99l-83.76 0 0 -850.99 83.76 0 0 850.99zm703.77 0l-383 0 0 -850.99 83.76 0 0 768.42 299.25 0 0 82.57zm355.43 0l-83.76 0 0 -850.99 83.76 0 0 850.99zm502.7 0l-83.79 0 0 -767.2 -169.97 0 0 -83.79 423.69 0 0 83.79 -169.93 0 0 767.2zm501.47 0l-83.76 0 0 -850.99 83.76 0 0 850.99zm404.52 -469.18l357.88 0 0 83.79 -357.88 0 0 302.81 357.88 0 0 82.57 -441.64 0 0 -850.99 441.64 0 0 83.79 -357.88 0 0 298.02zm634.16 226.23l80.19 0c1.57,52.66 16.57,94.34 44.87,125.67 28.34,31.1 65.62,46.67 111.71,46.67 49.66,0 88.97,-15.57 118.08,-46.48 29.14,-30.95 43.68,-73.02 43.68,-125.87 0,-77.2 -59.64,-135.45 -179.1,-174.76 -9.4,-3.18 -16.38,-5.37 -21.17,-6.98 -62.24,-21.55 -106.92,-48.67 -134.46,-81.57 -27.31,-32.94 -41.08,-75.82 -41.08,-128.89 0,-67.8 21.13,-123.26 63.43,-166.55 42.3,-43.3 96.76,-64.81 163.76,-64.81 63.85,0 114.51,19.75 152.02,59.02 37.32,39.31 58.25,94.77 62.43,165.98l-79 0c-4.18,-46.29 -18.14,-81.99 -41.5,-107.11 -23.31,-25.16 -54.84,-37.7 -94.15,-37.7 -42.07,0 -76.4,13.77 -103.12,41.08 -26.73,27.53 -40.12,62.43 -40.12,104.93 0,22.16 3.99,41.3 12,57.64 7.98,16.18 20.71,30.72 38.27,44.1 17.95,13.15 52.27,27.92 102.93,44.29 29.14,9.36 51.46,16.95 66.65,22.74 55.23,21.52 95.15,48.86 119.46,82.18 24.35,33.29 36.51,76.97 36.51,131.04 0,82.57 -22.55,149.03 -67.61,199.5 -44.91,50.47 -104.73,75.59 -179.13,75.59 -69.41,0 -125.67,-23.74 -168.97,-71.41 -43.3,-47.67 -65.43,-110.53 -66.62,-188.3zm1419.27 242.95l-88.36 0 330.31 -850.99 100.56 0 329.12 850.99 -89.36 0 -101.74 -266.92 -378.78 0 -101.74 266.92zm451.23 -343.51l-161.38 -427.3 -159 427.3 320.38 0zm517.23 -423.69l0 767.2 -82.57 0 0 -850.99 228.8 0c50.27,0 90.77,3.8 121.26,11.39 30.72,7.59 58.45,20.14 83.41,37.7 33.9,23.74 60.63,55.45 80.38,95.15 19.75,39.89 29.53,81.99 29.53,126.29 0,65.81 -19.56,122.45 -58.87,169.93 -39.08,47.67 -88.17,73.4 -146.99,77.81l205.86 332.73 -99.37 0 -252.73 -410.54 80.8 0c53.65,0 97.34,-15.77 131.04,-47.25 33.71,-31.52 50.47,-72.02 50.47,-121.49 0,-29.91 -5.18,-57.07 -15.57,-81.61 -10.16,-24.51 -25.54,-46.06 -45.68,-64.2 -16.76,-15.19 -36.89,-26.16 -60.44,-32.52 -23.74,-6.41 -65.62,-9.59 -125.87,-9.59l-123.49 0zm841.37 298.02l357.89 0 0 83.79 -357.89 0 0 302.81 357.89 0 0 82.57 -441.64 0 0 -850.99 441.64 0 0 83.79 -357.89 0 0 298.02zm1437.64 469.18l-83.76 0 0 -850.99 83.76 0 0 850.99zm885.66 -101.74l-9.55 -749.25 82.57 0 0 850.99 -100.52 0 -466.8 -750.44 9.59 750.44 -82.61 0 0 -850.99 100.56 0 466.76 749.25zm395.97 101.74l0 -850.99 420.09 0 0 83.79 -337.52 0 0 298.02 337.52 0 0 83.79 -337.52 0 0 385.38 -82.57 0zm824.23 0l-83.76 0 0 -850.99 83.76 0 0 850.99zm885.66 -101.74l-9.55 -749.25 82.57 0 0 850.99 -100.52 0 -466.8 -750.44 9.59 750.44 -82.61 0 0 -850.99 100.56 0 466.76 749.25zm478.53 101.74l-83.76 0 0 -850.99 83.76 0 0 850.99zm502.7 0l-83.8 0 0 -767.2 -169.97 0 0 -83.79 423.69 0 0 83.79 -169.93 0 0 767.2zm502.66 -469.18l357.88 0 0 83.79 -357.88 0 0 302.81 357.88 0 0 82.57 -441.64 0 0 -850.99 441.64 0 0 83.79 -357.88 0 0 298.02z"/>
   <g>
    <path class="fil0" d="M5595.42 544.02c154.92,0 295.19,62.81 396.73,164.33 101.53,101.53 164.33,241.8 164.33,396.73 0,154.92 -62.8,295.19 -164.33,396.73 -101.53,101.53 -241.8,164.34 -396.73,164.34 -154.92,0 -295.19,-62.81 -396.73,-164.34 -101.53,-101.53 -164.33,-241.8 -164.33,-396.73 0,-154.92 62.8,-295.19 164.33,-396.73 101.53,-101.53 241.8,-164.33 396.73,-164.33zm309.44 251.62c-79.18,-79.18 -188.59,-128.16 -309.44,-128.16 -120.85,0 -230.26,48.98 -309.45,128.16 -79.18,79.18 -128.16,188.59 -128.16,309.44 0,120.85 48.98,230.26 128.16,309.45 79.19,79.18 188.6,128.16 309.45,128.16 120.85,0 230.26,-48.98 309.44,-128.16 79.18,-79.19 128.17,-188.6 128.17,-309.45 0,-120.85 -48.98,-230.26 -128.17,-309.44z"/>
    <path class="fil1" d="M1747.42 7785.56l61.86 0 154.89 -20.22c1678.02,-264.93 2582.06,-2408.01 1116.64,-3623.87 -1321.18,-1095.65 -1906.16,-1852.24 -1340.1,-3445.87l-1740.7 0 0 3430.08 0 165.01 0 1664.98c0,1006.47 786.31,1829.89 1747.42,1829.89zm2718.99 -4353.54c168.91,-273.67 266.59,-595.41 266.59,-938.88 0,-988.66 -808.89,-1797.54 -1797.54,-1797.54l-760.2 0c35.53,295.7 137.97,588.8 299.94,879.22 100.71,157.68 220.9,310.11 356.16,459.06 278.28,306.44 600.6,579.57 922.94,838.37 235.43,189.02 475.16,372.65 712.11,559.77z"/>
    <path class="fil2" d="M3405.7 3931.1c-2589.65,-1705.71 -1660.56,-2723.37 -1308.24,-3931.1 -418.07,1683.26 1290.6,2676.85 2616.43,3769.19 1993.61,1642.49 1165.97,4243.56 -2042.41,4016.37 1799.34,-279.16 2815.12,-2483.83 734.21,-3854.46z"/>
    <path class="fil0" d="M5388.89 1359.65l0 -525 223.27 0c56.09,0 96.91,4.76 122.33,14.18 25.54,9.41 45.83,26.15 61.1,50.23 15.27,24.2 22.97,51.69 22.97,82.74 0,39.47 -11.48,71.98 -34.58,97.64 -23.1,25.67 -57.55,41.8 -103.51,48.52 22.85,13.32 41.68,27.98 56.46,43.99 14.91,16.01 34.95,44.48 60.12,85.3l64.04 102.41 -126.73 0 -76.01 -114.63c-27.25,-40.69 -45.95,-66.36 -56.09,-76.99 -10.02,-10.51 -20.65,-17.84 -31.89,-21.75 -11.36,-3.91 -29.21,-5.87 -53.65,-5.87l-21.51 0 0 219.24 -106.32 0zm106.32 -302.82l78.46 0c50.84,0 82.49,-2.2 95.2,-6.48 12.59,-4.28 22.6,-11.74 29.69,-22.24 7.21,-10.51 10.75,-23.71 10.75,-39.47 0,-17.72 -4.77,-31.89 -14.18,-42.89 -9.41,-10.88 -22.73,-17.72 -39.84,-20.53 -8.68,-1.23 -34.46,-1.84 -77.35,-1.84l-82.74 0 0 133.45z"/>
   </g>
   <g>
    <polygon class="fil3" style="mask:url(#id0)" points="16970.14,6432.26 27022.79,6432.26 27022.79,6528.73 16970.14,6528.73 "/>
    <polygon class="fil3" style="mask:url(#id2)" points="16970.14,6432.26 6917.5,6432.26 6917.5,6528.73 16970.14,6528.73 "/>
   </g>
  </g>
 </g>
</svg>
