<svg xmlns="http://www.w3.org/2000/svg" xmlns:xlink="http://www.w3.org/1999/xlink" width="80" zoomAndPan="magnify" viewBox="0 0 60 60" height="80" preserveAspectRatio="xMidYMid meet" version="1.0"><defs><clipPath id="c83fab375f"><path d="M 0.976562 0.976562 L 58.726562 0.976562 L 58.726562 58.726562 L 0.976562 58.726562 Z M 0.976562 0.976562 " clip-rule="nonzero"/></clipPath></defs><g clip-path="url(#c83fab375f)"><path fill="#2197bd" d="M 58.726562 49.945312 C 58.726562 54.789062 54.796875 58.71875 49.949219 58.71875 L 9.753906 58.71875 C 4.90625 58.71875 0.976562 54.789062 0.976562 49.945312 L 0.976562 9.746094 C 0.976562 4.898438 4.90625 0.972656 9.753906 0.972656 L 49.949219 0.972656 C 54.796875 0.972656 58.726562 4.898438 58.726562 9.746094 Z M 58.726562 49.945312 " fill-opacity="1" fill-rule="nonzero"/></g><path fill="#ffffff" d="M 23.8125 21.574219 C 23.8125 21.859375 23.785156 22.136719 23.730469 22.414062 C 23.671875 22.695312 23.59375 22.964844 23.484375 23.226562 C 23.375 23.488281 23.242188 23.734375 23.085938 23.972656 C 22.925781 24.207031 22.75 24.425781 22.546875 24.625 C 22.347656 24.824219 22.128906 25.003906 21.894531 25.160156 C 21.660156 25.320312 21.410156 25.453125 21.148438 25.558594 C 20.886719 25.667969 20.617188 25.75 20.339844 25.804688 C 20.0625 25.859375 19.78125 25.886719 19.496094 25.886719 C 19.214844 25.886719 18.933594 25.859375 18.65625 25.804688 C 18.378906 25.75 18.109375 25.667969 17.847656 25.558594 C 17.585938 25.453125 17.335938 25.320312 17.101562 25.160156 C 16.867188 25.003906 16.648438 24.824219 16.449219 24.625 C 16.246094 24.425781 16.070312 24.207031 15.910156 23.972656 C 15.753906 23.734375 15.621094 23.488281 15.511719 23.226562 C 15.402344 22.964844 15.320312 22.695312 15.265625 22.414062 C 15.210938 22.136719 15.183594 21.859375 15.183594 21.574219 C 15.183594 21.292969 15.210938 21.011719 15.265625 20.734375 C 15.320312 20.453125 15.402344 20.183594 15.511719 19.921875 C 15.621094 19.660156 15.753906 19.414062 15.910156 19.175781 C 16.070312 18.941406 16.246094 18.722656 16.449219 18.523438 C 16.648438 18.324219 16.867188 18.144531 17.101562 17.988281 C 17.335938 17.828125 17.585938 17.695312 17.847656 17.589844 C 18.109375 17.480469 18.378906 17.398438 18.65625 17.34375 C 18.933594 17.289062 19.214844 17.261719 19.496094 17.261719 C 19.78125 17.261719 20.0625 17.289062 20.339844 17.34375 C 20.617188 17.398438 20.886719 17.480469 21.148438 17.589844 C 21.410156 17.695312 21.660156 17.828125 21.894531 17.988281 C 22.128906 18.144531 22.347656 18.324219 22.546875 18.523438 C 22.75 18.722656 22.925781 18.941406 23.085938 19.175781 C 23.242188 19.414062 23.375 19.660156 23.484375 19.921875 C 23.59375 20.183594 23.671875 20.453125 23.730469 20.734375 C 23.785156 21.011719 23.8125 21.292969 23.8125 21.574219 Z M 23.8125 21.574219 " fill-opacity="1" fill-rule="nonzero"/><path fill="#ffffff" d="M 15.777344 29.070312 L 23.191406 29.070312 L 23.191406 52.910156 L 15.777344 52.910156 Z M 15.777344 29.070312 " fill-opacity="1" fill-rule="nonzero"/><path fill="#ffffff" d="M 27.851562 29.070312 L 34.90625 29.070312 L 34.90625 52.910156 L 27.851562 52.910156 Z M 27.851562 29.070312 " fill-opacity="1" fill-rule="nonzero"/><path fill="#ffffff" d="M 28.15625 41.761719 L 35.210938 41.761719 L 35.210938 52.910156 L 28.15625 52.910156 Z M 28.15625 41.761719 " fill-opacity="1" fill-rule="nonzero"/><path fill="#ffffff" d="M 35.210938 41.761719 C 35.210938 41.761719 35.101562 38.671875 35.914062 37.0625 C 35.914062 37.0625 36.730469 35.082031 39.292969 35.070312 C 39.292969 35.070312 42.300781 34.546875 43.164062 37.527344 C 43.164062 37.527344 43.488281 39.183594 43.488281 39.882812 C 43.488281 40.582031 43.511719 52.910156 43.511719 52.910156 L 50.902344 52.910156 L 50.902344 39.253906 C 50.902344 39.253906 51.4375 31.539062 46.808594 29.425781 C 46.808594 29.425781 39.191406 26.007812 35.0625 32.285156 C 35.0625 32.285156 34.160156 32.90625 34.035156 31.167969 C 33.910156 29.425781 32.855469 33.839844 32.824219 33.933594 C 32.792969 34.023438 34.035156 42.726562 34.035156 42.726562 Z M 35.210938 41.761719 " fill-opacity="1" fill-rule="nonzero"/></svg>