<svg xmlns="http://www.w3.org/2000/svg" xmlns:xlink="http://www.w3.org/1999/xlink" width="400" zoomAndPan="magnify" viewBox="0 0 300 525.000007" height="700" preserveAspectRatio="xMidYMid meet" version="1.0"><defs><filter x="0%" y="0%" width="100%" height="100%" id="7c30b2f7ff"><feColorMatrix values="0 0 0 0 1 0 0 0 0 1 0 0 0 0 1 0 0 0 1 0" color-interpolation-filters="sRGB"/></filter><clipPath id="6bb24a7e61"><path d="M 0.285156 0 L 299.714844 0 L 299.714844 524 L 0.285156 524 Z M 0.285156 0 " clip-rule="nonzero"/></clipPath><clipPath id="7f2c8a3baf"><path d="M 0.285156 0 L 299.714844 0 L 299.714844 256 L 0.285156 256 Z M 0.285156 0 " clip-rule="nonzero"/></clipPath><mask id="74f89c289e"><g filter="url(#7c30b2f7ff)"><rect x="-30" width="360" fill="#000000" y="-52.500001" height="630.000008" fill-opacity="0.29"/></g></mask><clipPath id="188eba9ff1"><path d="M 201 250 L 207 250 L 207 255.265625 L 201 255.265625 Z M 201 250 " clip-rule="nonzero"/></clipPath><clipPath id="6a8fcd851a"><path d="M 294 95 L 299.714844 95 L 299.714844 101 L 294 101 Z M 294 95 " clip-rule="nonzero"/></clipPath><clipPath id="7cb3225c10"><path d="M 294 111 L 299.714844 111 L 299.714844 117 L 294 117 Z M 294 111 " clip-rule="nonzero"/></clipPath><clipPath id="6e5d71ba21"><path d="M 293 0.117188 L 299.714844 0.117188 L 299.714844 6 L 293 6 Z M 293 0.117188 " clip-rule="nonzero"/></clipPath><clipPath id="d5caf0c38d"><path d="M 293 123 L 299.714844 123 L 299.714844 130 L 293 130 Z M 293 123 " clip-rule="nonzero"/></clipPath><clipPath id="246a5311a7"><path d="M 0.285156 95 L 6 95 L 6 101 L 0.285156 101 Z M 0.285156 95 " clip-rule="nonzero"/></clipPath><clipPath id="4ba394e9d2"><rect x="0" width="300" y="0" height="256"/></clipPath><clipPath id="ed7305b80a"><path d="M 0.285156 302 L 249 302 L 249 522 L 0.285156 522 Z M 0.285156 302 " clip-rule="nonzero"/></clipPath><mask id="900aa39b7b"><g filter="url(#7c30b2f7ff)"><rect x="-30" width="360" fill="#000000" y="-52.500001" height="630.000008" fill-opacity="0.29"/></g></mask><clipPath id="0a300e4fd0"><path d="M 0.285156 123 L 32 123 L 32 218 L 0.285156 218 Z M 0.285156 123 " clip-rule="nonzero"/></clipPath><clipPath id="3ad3444e37"><path d="M 0.285156 69 L 86 69 L 86 138 L 0.285156 138 Z M 0.285156 69 " clip-rule="nonzero"/></clipPath><clipPath id="93fbd32430"><path d="M 0.285156 29 L 59 29 L 59 124 L 0.285156 124 Z M 0.285156 29 " clip-rule="nonzero"/></clipPath><clipPath id="e12b332909"><path d="M 0.285156 15 L 32 15 L 32 110 L 0.285156 110 Z M 0.285156 15 " clip-rule="nonzero"/></clipPath><clipPath id="df4da9a3f4"><path d="M 69 0.277344 L 74 0.277344 L 74 5 L 69 5 Z M 69 0.277344 " clip-rule="nonzero"/></clipPath><clipPath id="0b342b62b6"><path d="M 2 215 L 7 215 L 7 219.964844 L 2 219.964844 Z M 2 215 " clip-rule="nonzero"/></clipPath><clipPath id="6850129834"><path d="M 13 214 L 19 214 L 19 219.964844 L 13 219.964844 Z M 13 214 " clip-rule="nonzero"/></clipPath><clipPath id="87011588e3"><path d="M 53 214 L 59 214 L 59 219.964844 L 53 219.964844 Z M 53 214 " clip-rule="nonzero"/></clipPath><clipPath id="17d34f1bcf"><path d="M 244 134 L 248.375 134 L 248.375 139 L 244 139 Z M 244 134 " clip-rule="nonzero"/></clipPath><clipPath id="85895ad33b"><rect x="0" width="249" y="0" height="220"/></clipPath><clipPath id="f5d0d9bfb8"><path d="M 149 265 L 299.714844 265 L 299.714844 339 L 149 339 Z M 149 265 " clip-rule="nonzero"/></clipPath><mask id="99932f61bb"><g filter="url(#7c30b2f7ff)"><rect x="-30" width="360" fill="#000000" y="-52.500001" height="630.000008" fill-opacity="0.2"/></g></mask><clipPath id="a6d70c1eee"><path d="M 5 41 L 150.714844 41 L 150.714844 72.949219 L 5 72.949219 Z M 5 41 " clip-rule="nonzero"/></clipPath><clipPath id="86adaa7776"><path d="M 54 6 L 150.714844 6 L 150.714844 43 L 54 43 Z M 54 6 " clip-rule="nonzero"/></clipPath><clipPath id="7b0ea95440"><path d="M 49 1.835938 L 61 1.835938 L 61 13 L 49 13 Z M 49 1.835938 " clip-rule="nonzero"/></clipPath><clipPath id="944895c4f5"><path d="M 1.304688 37 L 12 37 L 12 48 L 1.304688 48 Z M 1.304688 37 " clip-rule="nonzero"/></clipPath><clipPath id="ee3cd3dff7"><rect x="0" width="151" y="0" height="74"/></clipPath></defs><g clip-path="url(#6bb24a7e61)"><path fill="#ffffff" d="M 0.285156 0 L 299.714844 0 L 299.714844 524 L 0.285156 524 Z M 0.285156 0 " fill-opacity="1" fill-rule="nonzero"/><path fill="#000000" d="M 0.285156 0 L 299.714844 0 L 299.714844 524 L 0.285156 524 Z M 0.285156 0 " fill-opacity="1" fill-rule="nonzero"/></g><g clip-path="url(#7f2c8a3baf)"><g mask="url(#74f89c289e)"><g transform="matrix(1, 0, 0, 1, 0.000000000000000056, 0.000000000000109615)"><g clip-path="url(#4ba394e9d2)"><path fill="#d6d6d6" d="M 296.429688 5.28125 L 297.242188 5.28125 L 297.242188 67.363281 L 297.125 67.484375 L 250.6875 113.921875 L 250.113281 113.34375 L 296.429688 67.027344 Z M 296.429688 5.28125 " fill-opacity="1" fill-rule="nonzero"/><path fill="#d6d6d6" d="M 296.550781 97.867188 L 297.125 98.441406 L 250.570312 144.996094 L 219.613281 144.996094 L 188.773438 175.835938 L 188.199219 175.261719 L 219.277344 144.183594 L 250.234375 144.183594 Z M 296.550781 97.867188 " fill-opacity="1" fill-rule="nonzero"/><path fill="#d6d6d6" d="M 296.550781 113.34375 L 297.125 113.921875 L 250.808594 160.238281 L 250.808594 191.195312 L 219.730469 222.273438 L 219.15625 221.699219 L 249.996094 190.859375 L 249.996094 159.902344 Z M 296.550781 113.34375 " fill-opacity="1" fill-rule="nonzero"/><path fill="#d6d6d6" d="M 281.074219 4.996094 L 281.644531 5.566406 L 235.089844 52.125 L 173.175781 52.125 L 126.859375 98.441406 L 126.28125 97.867188 L 172.839844 51.3125 L 234.753906 51.3125 Z M 281.074219 4.996094 " fill-opacity="1" fill-rule="nonzero"/><path fill="#d6d6d6" d="M 234.753906 4.875 L 265.882812 4.875 L 265.882812 5.6875 L 235.089844 5.6875 L 204.132812 36.644531 L 142.21875 36.644531 L 80.421875 98.441406 L 79.847656 97.867188 L 141.882812 35.832031 L 203.796875 35.832031 Z M 234.753906 4.875 " fill-opacity="1" fill-rule="nonzero"/><path fill="#d6d6d6" d="M 281.074219 20.472656 L 281.644531 21.046875 L 219.851562 82.84375 L 219.851562 113.800781 L 188.773438 144.878906 L 188.199219 144.304688 L 219.039062 113.464844 L 219.039062 82.507812 Z M 281.074219 20.472656 " fill-opacity="1" fill-rule="nonzero"/><path fill="#d6d6d6" d="M 296.429688 129.113281 L 297.242188 129.113281 L 297.242188 191.195312 L 297.125 191.316406 L 250.6875 237.753906 L 250.113281 237.175781 L 296.429688 190.859375 Z M 296.429688 129.113281 " fill-opacity="1" fill-rule="nonzero"/><path fill="#d6d6d6" d="M 280.953125 144.589844 L 281.765625 144.589844 L 281.765625 175.71875 L 281.644531 175.835938 L 204.25 253.230469 L 203.679688 252.65625 L 280.953125 175.382812 Z M 280.953125 144.589844 " fill-opacity="1" fill-rule="nonzero"/><path fill="#d6d6d6" d="M 281.074219 51.429688 L 281.644531 52.003906 L 235.328125 98.324219 L 235.328125 129.113281 L 234.515625 129.113281 L 234.515625 97.988281 Z M 281.074219 51.429688 " fill-opacity="1" fill-rule="nonzero"/><path fill="#d6d6d6" d="M 203.679688 66.910156 L 204.25 67.484375 L 142.457031 129.28125 L 142.457031 160.238281 L 126.859375 175.835938 L 126.28125 175.261719 L 141.644531 159.902344 L 141.644531 128.945312 Z M 203.679688 66.910156 " fill-opacity="1" fill-rule="nonzero"/><path fill="#d6d6d6" d="M 126.402344 4.875 L 219.445312 4.875 L 219.445312 5.6875 L 126.738281 5.6875 L 80.300781 52.125 L 49.34375 52.125 L 3.027344 98.441406 L 2.453125 97.867188 L 49.007812 51.3125 L 79.964844 51.3125 Z M 126.402344 4.875 " fill-opacity="1" fill-rule="nonzero"/><path fill="#d6d6d6" d="M 79.726562 51.71875 L 80.539062 51.71875 L 80.539062 67.363281 L 33.984375 113.921875 L 33.410156 113.34375 L 79.726562 67.027344 Z M 79.726562 51.71875 " fill-opacity="1" fill-rule="nonzero"/><path fill="#d6d6d6" d="M 203.679688 97.867188 L 204.25 98.441406 L 157.933594 144.757812 L 157.933594 191.195312 L 142.335938 206.792969 L 141.761719 206.21875 L 157.121094 190.859375 L 157.121094 144.421875 Z M 203.679688 97.867188 " fill-opacity="1" fill-rule="nonzero"/><path fill="#d6d6d6" d="M 124.132812 98.152344 C 124.132812 97.832031 124.195312 97.519531 124.316406 97.222656 C 124.441406 96.921875 124.617188 96.660156 124.847656 96.429688 C 125.074219 96.203125 125.339844 96.027344 125.636719 95.902344 C 125.9375 95.777344 126.246094 95.714844 126.570312 95.714844 C 126.894531 95.714844 127.203125 95.777344 127.503906 95.902344 C 127.800781 96.027344 128.066406 96.203125 128.292969 96.429688 C 128.523438 96.660156 128.699219 96.921875 128.820312 97.222656 C 128.945312 97.519531 129.007812 97.832031 129.007812 98.152344 C 129.007812 98.476562 128.945312 98.789062 128.820312 99.085938 C 128.699219 99.386719 128.523438 99.648438 128.292969 99.878906 C 128.066406 100.105469 127.800781 100.28125 127.503906 100.40625 C 127.203125 100.53125 126.894531 100.59375 126.570312 100.59375 C 126.246094 100.59375 125.9375 100.53125 125.636719 100.40625 C 125.339844 100.28125 125.074219 100.105469 124.847656 99.878906 C 124.617188 99.648438 124.441406 99.386719 124.316406 99.085938 C 124.195312 98.789062 124.132812 98.476562 124.132812 98.152344 Z M 124.132812 98.152344 " fill-opacity="1" fill-rule="nonzero"/><path fill="#d6d6d6" d="M 77.695312 98.152344 C 77.695312 97.832031 77.757812 97.519531 77.882812 97.222656 C 78.003906 96.921875 78.179688 96.660156 78.410156 96.429688 C 78.640625 96.203125 78.902344 96.027344 79.199219 95.902344 C 79.5 95.777344 79.8125 95.714844 80.132812 95.714844 C 80.457031 95.714844 80.769531 95.777344 81.066406 95.902344 C 81.367188 96.027344 81.628906 96.203125 81.859375 96.429688 C 82.085938 96.660156 82.261719 96.921875 82.386719 97.222656 C 82.511719 97.519531 82.570312 97.832031 82.570312 98.152344 C 82.570312 98.476562 82.511719 98.789062 82.386719 99.085938 C 82.261719 99.386719 82.085938 99.648438 81.859375 99.878906 C 81.628906 100.105469 81.367188 100.28125 81.066406 100.40625 C 80.769531 100.53125 80.457031 100.59375 80.132812 100.59375 C 79.8125 100.59375 79.5 100.53125 79.199219 100.40625 C 78.902344 100.28125 78.640625 100.105469 78.410156 99.878906 C 78.179688 99.648438 78.003906 99.386719 77.882812 99.085938 C 77.757812 98.789062 77.695312 98.476562 77.695312 98.152344 Z M 77.695312 98.152344 " fill-opacity="1" fill-rule="nonzero"/><path fill="#d6d6d6" d="M 31.257812 113.632812 C 31.257812 113.308594 31.320312 113 31.445312 112.699219 C 31.566406 112.402344 31.742188 112.136719 31.972656 111.910156 C 32.199219 111.679688 32.464844 111.503906 32.761719 111.382812 C 33.0625 111.257812 33.375 111.195312 33.695312 111.195312 C 34.019531 111.195312 34.332031 111.257812 34.628906 111.382812 C 34.929688 111.503906 35.191406 111.679688 35.421875 111.910156 C 35.648438 112.136719 35.824219 112.402344 35.949219 112.699219 C 36.074219 113 36.132812 113.308594 36.132812 113.632812 C 36.132812 113.957031 36.074219 114.269531 35.949219 114.566406 C 35.824219 114.863281 35.648438 115.128906 35.421875 115.355469 C 35.191406 115.585938 34.929688 115.761719 34.628906 115.886719 C 34.332031 116.007812 34.019531 116.070312 33.695312 116.070312 C 33.375 116.070312 33.0625 116.007812 32.761719 115.886719 C 32.464844 115.761719 32.199219 115.585938 31.972656 115.355469 C 31.742188 115.128906 31.566406 114.863281 31.445312 114.566406 C 31.320312 114.269531 31.257812 113.957031 31.257812 113.632812 Z M 31.257812 113.632812 " fill-opacity="1" fill-rule="nonzero"/><path fill="#d6d6d6" d="M 124.132812 175.546875 C 124.132812 175.226562 124.195312 174.914062 124.316406 174.617188 C 124.441406 174.316406 124.617188 174.054688 124.847656 173.824219 C 125.074219 173.597656 125.339844 173.417969 125.636719 173.296875 C 125.9375 173.171875 126.246094 173.109375 126.570312 173.109375 C 126.894531 173.109375 127.203125 173.171875 127.503906 173.296875 C 127.800781 173.417969 128.066406 173.597656 128.292969 173.824219 C 128.523438 174.054688 128.699219 174.316406 128.820312 174.617188 C 128.945312 174.914062 129.007812 175.226562 129.007812 175.546875 C 129.007812 175.871094 128.945312 176.183594 128.820312 176.480469 C 128.699219 176.78125 128.523438 177.042969 128.292969 177.273438 C 128.066406 177.5 127.800781 177.675781 127.503906 177.800781 C 127.203125 177.925781 126.894531 177.988281 126.570312 177.988281 C 126.246094 177.988281 125.9375 177.925781 125.636719 177.800781 C 125.339844 177.675781 125.074219 177.5 124.847656 177.273438 C 124.617188 177.042969 124.441406 176.78125 124.316406 176.480469 C 124.195312 176.183594 124.132812 175.871094 124.132812 175.546875 Z M 124.132812 175.546875 " fill-opacity="1" fill-rule="nonzero"/><path fill="#d6d6d6" d="M 186.046875 144.589844 C 186.046875 144.269531 186.109375 143.957031 186.234375 143.660156 C 186.359375 143.359375 186.535156 143.097656 186.761719 142.867188 C 186.992188 142.640625 187.253906 142.464844 187.554688 142.339844 C 187.851562 142.214844 188.164062 142.152344 188.488281 142.152344 C 188.808594 142.152344 189.121094 142.214844 189.417969 142.339844 C 189.71875 142.464844 189.980469 142.640625 190.210938 142.867188 C 190.4375 143.097656 190.617188 143.359375 190.738281 143.660156 C 190.863281 143.957031 190.925781 144.269531 190.925781 144.589844 C 190.925781 144.914062 190.863281 145.226562 190.738281 145.523438 C 190.617188 145.824219 190.4375 146.085938 190.210938 146.316406 C 189.980469 146.542969 189.71875 146.71875 189.417969 146.84375 C 189.121094 146.96875 188.808594 147.03125 188.488281 147.03125 C 188.164062 147.03125 187.851562 146.96875 187.554688 146.84375 C 187.253906 146.71875 186.992188 146.542969 186.761719 146.316406 C 186.535156 146.085938 186.359375 145.824219 186.234375 145.523438 C 186.109375 145.226562 186.046875 144.914062 186.046875 144.589844 Z M 186.046875 144.589844 " fill-opacity="1" fill-rule="nonzero"/><path fill="#d6d6d6" d="M 247.964844 237.464844 C 247.964844 237.140625 248.027344 236.832031 248.148438 236.53125 C 248.273438 236.234375 248.449219 235.96875 248.679688 235.742188 C 248.90625 235.511719 249.171875 235.335938 249.46875 235.214844 C 249.765625 235.089844 250.078125 235.027344 250.402344 235.027344 C 250.726562 235.027344 251.035156 235.089844 251.335938 235.214844 C 251.632812 235.335938 251.898438 235.511719 252.125 235.742188 C 252.355469 235.96875 252.53125 236.234375 252.652344 236.53125 C 252.777344 236.832031 252.839844 237.140625 252.839844 237.464844 C 252.839844 237.789062 252.777344 238.097656 252.652344 238.398438 C 252.53125 238.695312 252.355469 238.960938 252.125 239.1875 C 251.898438 239.417969 251.632812 239.59375 251.335938 239.71875 C 251.035156 239.839844 250.726562 239.902344 250.402344 239.902344 C 250.078125 239.902344 249.765625 239.839844 249.46875 239.71875 C 249.171875 239.59375 248.90625 239.417969 248.679688 239.1875 C 248.449219 238.960938 248.273438 238.695312 248.148438 238.398438 C 248.027344 238.097656 247.964844 237.789062 247.964844 237.464844 Z M 247.964844 237.464844 " fill-opacity="1" fill-rule="nonzero"/><path fill="#d6d6d6" d="M 139.609375 207.429688 C 139.609375 207.105469 139.671875 206.792969 139.796875 206.496094 C 139.921875 206.195312 140.097656 205.933594 140.324219 205.703125 C 140.554688 205.476562 140.816406 205.300781 141.117188 205.175781 C 141.414062 205.050781 141.726562 204.992188 142.050781 204.992188 C 142.371094 204.992188 142.683594 205.050781 142.980469 205.175781 C 143.28125 205.300781 143.542969 205.476562 143.773438 205.703125 C 144 205.933594 144.179688 206.195312 144.300781 206.496094 C 144.425781 206.792969 144.488281 207.105469 144.488281 207.429688 C 144.488281 207.75 144.425781 208.0625 144.300781 208.363281 C 144.179688 208.660156 144 208.921875 143.773438 209.152344 C 143.542969 209.382812 143.28125 209.558594 142.980469 209.679688 C 142.683594 209.804688 142.371094 209.867188 142.050781 209.867188 C 141.726562 209.867188 141.414062 209.804688 141.117188 209.679688 C 140.816406 209.558594 140.554688 209.382812 140.324219 209.152344 C 140.097656 208.921875 139.921875 208.660156 139.796875 208.363281 C 139.671875 208.0625 139.609375 207.75 139.609375 207.429688 Z M 139.609375 207.429688 " fill-opacity="1" fill-rule="nonzero"/><path fill="#d6d6d6" d="M 186.046875 175.546875 C 186.046875 175.226562 186.109375 174.914062 186.234375 174.617188 C 186.359375 174.316406 186.535156 174.054688 186.761719 173.824219 C 186.992188 173.597656 187.253906 173.417969 187.554688 173.296875 C 187.851562 173.171875 188.164062 173.109375 188.488281 173.109375 C 188.808594 173.109375 189.121094 173.171875 189.417969 173.296875 C 189.71875 173.417969 189.980469 173.597656 190.210938 173.824219 C 190.4375 174.054688 190.617188 174.316406 190.738281 174.617188 C 190.863281 174.914062 190.925781 175.226562 190.925781 175.546875 C 190.925781 175.871094 190.863281 176.183594 190.738281 176.480469 C 190.617188 176.78125 190.4375 177.042969 190.210938 177.273438 C 189.980469 177.5 189.71875 177.675781 189.417969 177.800781 C 189.121094 177.925781 188.808594 177.988281 188.488281 177.988281 C 188.164062 177.988281 187.851562 177.925781 187.554688 177.800781 C 187.253906 177.675781 186.992188 177.5 186.761719 177.273438 C 186.535156 177.042969 186.359375 176.78125 186.234375 176.480469 C 186.109375 176.183594 186.046875 175.871094 186.046875 175.546875 Z M 186.046875 175.546875 " fill-opacity="1" fill-rule="nonzero"/><path fill="#d6d6d6" d="M 217.003906 221.984375 C 217.003906 221.664062 217.066406 221.351562 217.191406 221.054688 C 217.316406 220.753906 217.492188 220.492188 217.71875 220.261719 C 217.949219 220.035156 218.210938 219.859375 218.511719 219.734375 C 218.808594 219.609375 219.121094 219.546875 219.445312 219.546875 C 219.765625 219.546875 220.078125 219.609375 220.375 219.734375 C 220.675781 219.859375 220.9375 220.035156 221.167969 220.261719 C 221.394531 220.492188 221.570312 220.753906 221.695312 221.054688 C 221.820312 221.351562 221.882812 221.664062 221.882812 221.984375 C 221.882812 222.308594 221.820312 222.621094 221.695312 222.917969 C 221.570312 223.21875 221.394531 223.480469 221.167969 223.710938 C 220.9375 223.9375 220.675781 224.113281 220.375 224.238281 C 220.078125 224.363281 219.765625 224.425781 219.445312 224.425781 C 219.121094 224.425781 218.808594 224.363281 218.511719 224.238281 C 218.210938 224.113281 217.949219 223.9375 217.71875 223.710938 C 217.492188 223.480469 217.316406 223.21875 217.191406 222.917969 C 217.066406 222.621094 217.003906 222.308594 217.003906 221.984375 Z M 217.003906 221.984375 " fill-opacity="1" fill-rule="nonzero"/><g clip-path="url(#188eba9ff1)"><path fill="#d6d6d6" d="M 201.527344 252.941406 C 201.527344 252.621094 201.589844 252.308594 201.710938 252.011719 C 201.835938 251.710938 202.011719 251.449219 202.242188 251.21875 C 202.46875 250.992188 202.734375 250.8125 203.03125 250.691406 C 203.328125 250.566406 203.640625 250.503906 203.964844 250.503906 C 204.289062 250.503906 204.597656 250.566406 204.898438 250.691406 C 205.195312 250.8125 205.460938 250.992188 205.6875 251.21875 C 205.917969 251.449219 206.09375 251.710938 206.214844 252.011719 C 206.339844 252.308594 206.402344 252.621094 206.402344 252.941406 C 206.402344 253.265625 206.339844 253.578125 206.214844 253.875 C 206.09375 254.175781 205.917969 254.4375 205.6875 254.667969 C 205.460938 254.894531 205.195312 255.070312 204.898438 255.195312 C 204.597656 255.320312 204.289062 255.378906 203.964844 255.378906 C 203.640625 255.378906 203.328125 255.320312 203.03125 255.195312 C 202.734375 255.070312 202.46875 254.894531 202.242188 254.667969 C 202.011719 254.4375 201.835938 254.175781 201.710938 253.875 C 201.589844 253.578125 201.527344 253.265625 201.527344 252.941406 Z M 201.527344 252.941406 " fill-opacity="1" fill-rule="nonzero"/></g><path fill="#d6d6d6" d="M 201.527344 98.152344 C 201.527344 97.832031 201.589844 97.519531 201.710938 97.222656 C 201.835938 96.921875 202.011719 96.660156 202.242188 96.429688 C 202.46875 96.203125 202.734375 96.027344 203.03125 95.902344 C 203.328125 95.777344 203.640625 95.714844 203.964844 95.714844 C 204.289062 95.714844 204.597656 95.777344 204.898438 95.902344 C 205.195312 96.027344 205.460938 96.203125 205.6875 96.429688 C 205.917969 96.660156 206.09375 96.921875 206.214844 97.222656 C 206.339844 97.519531 206.402344 97.832031 206.402344 98.152344 C 206.402344 98.476562 206.339844 98.789062 206.214844 99.085938 C 206.09375 99.386719 205.917969 99.648438 205.6875 99.878906 C 205.460938 100.105469 205.195312 100.28125 204.898438 100.40625 C 204.597656 100.53125 204.289062 100.59375 203.964844 100.59375 C 203.640625 100.59375 203.328125 100.53125 203.03125 100.40625 C 202.734375 100.28125 202.46875 100.105469 202.242188 99.878906 C 202.011719 99.648438 201.835938 99.386719 201.710938 99.085938 C 201.589844 98.789062 201.527344 98.476562 201.527344 98.152344 Z M 201.527344 98.152344 " fill-opacity="1" fill-rule="nonzero"/><path fill="#d6d6d6" d="M 201.527344 67.199219 C 201.527344 66.875 201.589844 66.5625 201.710938 66.265625 C 201.835938 65.964844 202.011719 65.703125 202.242188 65.472656 C 202.46875 65.246094 202.734375 65.070312 203.03125 64.945312 C 203.328125 64.820312 203.640625 64.757812 203.964844 64.757812 C 204.289062 64.757812 204.597656 64.820312 204.898438 64.945312 C 205.195312 65.070312 205.460938 65.246094 205.6875 65.472656 C 205.917969 65.703125 206.09375 65.964844 206.214844 66.265625 C 206.339844 66.5625 206.402344 66.875 206.402344 67.199219 C 206.402344 67.519531 206.339844 67.832031 206.214844 68.128906 C 206.09375 68.429688 205.917969 68.691406 205.6875 68.921875 C 205.460938 69.148438 205.195312 69.324219 204.898438 69.449219 C 204.597656 69.574219 204.289062 69.636719 203.964844 69.636719 C 203.640625 69.636719 203.328125 69.574219 203.03125 69.449219 C 202.734375 69.324219 202.46875 69.148438 202.242188 68.921875 C 202.011719 68.691406 201.835938 68.429688 201.710938 68.128906 C 201.589844 67.832031 201.527344 67.519531 201.527344 67.199219 Z M 201.527344 67.199219 " fill-opacity="1" fill-rule="nonzero"/><path fill="#d6d6d6" d="M 278.921875 5.28125 C 278.921875 4.957031 278.984375 4.648438 279.105469 4.347656 C 279.230469 4.050781 279.40625 3.785156 279.632812 3.558594 C 279.863281 3.328125 280.128906 3.152344 280.425781 3.03125 C 280.722656 2.90625 281.035156 2.84375 281.359375 2.84375 C 281.683594 2.84375 281.992188 2.90625 282.292969 3.03125 C 282.589844 3.152344 282.855469 3.328125 283.082031 3.558594 C 283.3125 3.785156 283.488281 4.050781 283.609375 4.347656 C 283.734375 4.648438 283.796875 4.957031 283.796875 5.28125 C 283.796875 5.605469 283.734375 5.917969 283.609375 6.214844 C 283.488281 6.515625 283.3125 6.777344 283.082031 7.007812 C 282.855469 7.234375 282.589844 7.410156 282.292969 7.535156 C 281.992188 7.660156 281.683594 7.71875 281.359375 7.71875 C 281.035156 7.71875 280.722656 7.660156 280.425781 7.535156 C 280.128906 7.410156 279.863281 7.234375 279.632812 7.007812 C 279.40625 6.777344 279.230469 6.515625 279.105469 6.214844 C 278.984375 5.917969 278.921875 5.605469 278.921875 5.28125 Z M 278.921875 5.28125 " fill-opacity="1" fill-rule="nonzero"/><path fill="#d6d6d6" d="M 278.921875 20.757812 C 278.921875 20.4375 278.984375 20.125 279.105469 19.828125 C 279.230469 19.527344 279.40625 19.265625 279.632812 19.035156 C 279.863281 18.808594 280.128906 18.632812 280.425781 18.507812 C 280.722656 18.382812 281.035156 18.320312 281.359375 18.320312 C 281.683594 18.320312 281.992188 18.382812 282.292969 18.507812 C 282.589844 18.632812 282.855469 18.808594 283.082031 19.035156 C 283.3125 19.265625 283.488281 19.527344 283.609375 19.828125 C 283.734375 20.125 283.796875 20.4375 283.796875 20.757812 C 283.796875 21.082031 283.734375 21.394531 283.609375 21.691406 C 283.488281 21.992188 283.3125 22.253906 283.082031 22.484375 C 282.855469 22.710938 282.589844 22.886719 282.292969 23.011719 C 281.992188 23.136719 281.683594 23.199219 281.359375 23.199219 C 281.035156 23.199219 280.722656 23.136719 280.425781 23.011719 C 280.128906 22.886719 279.863281 22.710938 279.632812 22.484375 C 279.40625 22.253906 279.230469 21.992188 279.105469 21.691406 C 278.984375 21.394531 278.921875 21.082031 278.921875 20.757812 Z M 278.921875 20.757812 " fill-opacity="1" fill-rule="nonzero"/><path fill="#d6d6d6" d="M 247.964844 113.632812 C 247.964844 113.308594 248.027344 113 248.148438 112.699219 C 248.273438 112.402344 248.449219 112.136719 248.679688 111.910156 C 248.90625 111.679688 249.171875 111.503906 249.46875 111.382812 C 249.765625 111.257812 250.078125 111.195312 250.402344 111.195312 C 250.726562 111.195312 251.035156 111.257812 251.335938 111.382812 C 251.632812 111.503906 251.898438 111.679688 252.125 111.910156 C 252.355469 112.136719 252.53125 112.402344 252.652344 112.699219 C 252.777344 113 252.839844 113.308594 252.839844 113.632812 C 252.839844 113.957031 252.777344 114.269531 252.652344 114.566406 C 252.53125 114.863281 252.355469 115.128906 252.125 115.355469 C 251.898438 115.585938 251.632812 115.761719 251.335938 115.886719 C 251.035156 116.007812 250.726562 116.070312 250.402344 116.070312 C 250.078125 116.070312 249.765625 116.007812 249.46875 115.886719 C 249.171875 115.761719 248.90625 115.585938 248.679688 115.355469 C 248.449219 115.128906 248.273438 114.863281 248.148438 114.566406 C 248.027344 114.269531 247.964844 113.957031 247.964844 113.632812 Z M 247.964844 113.632812 " fill-opacity="1" fill-rule="nonzero"/><path fill="#d6d6d6" d="M 278.921875 51.71875 C 278.921875 51.394531 278.984375 51.082031 279.105469 50.785156 C 279.230469 50.488281 279.40625 50.222656 279.632812 49.996094 C 279.863281 49.765625 280.128906 49.589844 280.425781 49.464844 C 280.722656 49.34375 281.035156 49.28125 281.359375 49.28125 C 281.683594 49.28125 281.992188 49.34375 282.292969 49.464844 C 282.589844 49.589844 282.855469 49.765625 283.082031 49.996094 C 283.3125 50.222656 283.488281 50.488281 283.609375 50.785156 C 283.734375 51.082031 283.796875 51.394531 283.796875 51.71875 C 283.796875 52.042969 283.734375 52.351562 283.609375 52.652344 C 283.488281 52.949219 283.3125 53.214844 283.082031 53.441406 C 282.855469 53.671875 282.589844 53.847656 282.292969 53.96875 C 281.992188 54.09375 281.683594 54.15625 281.359375 54.15625 C 281.035156 54.15625 280.722656 54.09375 280.425781 53.96875 C 280.128906 53.847656 279.863281 53.671875 279.632812 53.441406 C 279.40625 53.214844 279.230469 52.949219 279.105469 52.652344 C 278.984375 52.351562 278.921875 52.042969 278.921875 51.71875 Z M 278.921875 51.71875 " fill-opacity="1" fill-rule="nonzero"/><g clip-path="url(#6a8fcd851a)"><path fill="#d6d6d6" d="M 294.398438 98.152344 C 294.398438 97.832031 294.460938 97.519531 294.585938 97.222656 C 294.710938 96.921875 294.886719 96.660156 295.113281 96.429688 C 295.34375 96.203125 295.605469 96.027344 295.90625 95.902344 C 296.203125 95.777344 296.515625 95.714844 296.835938 95.714844 C 297.160156 95.714844 297.472656 95.777344 297.769531 95.902344 C 298.070312 96.027344 298.332031 96.203125 298.5625 96.429688 C 298.789062 96.660156 298.964844 96.921875 299.089844 97.222656 C 299.214844 97.519531 299.277344 97.832031 299.277344 98.152344 C 299.277344 98.476562 299.214844 98.789062 299.089844 99.085938 C 298.964844 99.386719 298.789062 99.648438 298.5625 99.878906 C 298.332031 100.105469 298.070312 100.28125 297.769531 100.40625 C 297.472656 100.53125 297.160156 100.59375 296.835938 100.59375 C 296.515625 100.59375 296.203125 100.53125 295.90625 100.40625 C 295.605469 100.28125 295.34375 100.105469 295.113281 99.878906 C 294.886719 99.648438 294.710938 99.386719 294.585938 99.085938 C 294.460938 98.789062 294.398438 98.476562 294.398438 98.152344 Z M 294.398438 98.152344 " fill-opacity="1" fill-rule="nonzero"/></g><g clip-path="url(#7cb3225c10)"><path fill="#d6d6d6" d="M 294.398438 113.632812 C 294.398438 113.308594 294.460938 113 294.585938 112.699219 C 294.710938 112.402344 294.886719 112.136719 295.113281 111.910156 C 295.34375 111.679688 295.605469 111.503906 295.90625 111.382812 C 296.203125 111.257812 296.515625 111.195312 296.835938 111.195312 C 297.160156 111.195312 297.472656 111.257812 297.769531 111.382812 C 298.070312 111.503906 298.332031 111.679688 298.5625 111.910156 C 298.789062 112.136719 298.964844 112.402344 299.089844 112.699219 C 299.214844 113 299.277344 113.308594 299.277344 113.632812 C 299.277344 113.957031 299.214844 114.269531 299.089844 114.566406 C 298.964844 114.863281 298.789062 115.128906 298.5625 115.355469 C 298.332031 115.585938 298.070312 115.761719 297.769531 115.886719 C 297.472656 116.007812 297.160156 116.070312 296.835938 116.070312 C 296.515625 116.070312 296.203125 116.007812 295.90625 115.886719 C 295.605469 115.761719 295.34375 115.585938 295.113281 115.355469 C 294.886719 115.128906 294.710938 114.863281 294.585938 114.566406 C 294.460938 114.269531 294.398438 113.957031 294.398438 113.632812 Z M 294.398438 113.632812 " fill-opacity="1" fill-rule="nonzero"/></g><g clip-path="url(#6e5d71ba21)"><path fill="#d6d6d6" d="M 296.835938 0 C 297.214844 0 297.578125 0.0703125 297.925781 0.214844 C 298.273438 0.359375 298.582031 0.566406 298.847656 0.832031 C 299.117188 1.101562 299.320312 1.40625 299.464844 1.757812 C 299.609375 2.105469 299.683594 2.46875 299.683594 2.84375 C 299.683594 3.222656 299.609375 3.585938 299.464844 3.933594 C 299.320312 4.28125 299.117188 4.589844 298.847656 4.855469 C 298.582031 5.121094 298.273438 5.328125 297.925781 5.472656 C 297.578125 5.617188 297.214844 5.6875 296.835938 5.6875 C 296.460938 5.6875 296.097656 5.617188 295.75 5.472656 C 295.402344 5.328125 295.09375 5.121094 294.828125 4.855469 C 294.558594 4.589844 294.355469 4.28125 294.210938 3.933594 C 294.066406 3.585938 293.992188 3.222656 293.992188 2.84375 C 293.992188 2.46875 294.066406 2.105469 294.210938 1.757812 C 294.355469 1.40625 294.5625 1.101562 294.828125 0.835938 C 295.09375 0.566406 295.402344 0.363281 295.75 0.21875 C 296.097656 0.0742188 296.460938 0 296.835938 0 Z M 296.835938 4.875 C 297.105469 4.875 297.367188 4.824219 297.617188 4.722656 C 297.863281 4.617188 298.082031 4.472656 298.273438 4.28125 C 298.464844 4.089844 298.613281 3.871094 298.714844 3.621094 C 298.816406 3.371094 298.871094 3.113281 298.871094 2.84375 C 298.871094 2.574219 298.816406 2.316406 298.714844 2.066406 C 298.613281 1.816406 298.464844 1.597656 298.273438 1.40625 C 298.082031 1.21875 297.863281 1.070312 297.617188 0.96875 C 297.367188 0.863281 297.105469 0.8125 296.835938 0.8125 C 296.570312 0.8125 296.308594 0.863281 296.058594 0.96875 C 295.8125 1.070312 295.589844 1.21875 295.402344 1.40625 C 295.210938 1.597656 295.0625 1.816406 294.960938 2.066406 C 294.859375 2.316406 294.804688 2.574219 294.804688 2.84375 C 294.804688 3.113281 294.859375 3.371094 294.960938 3.621094 C 295.066406 3.871094 295.210938 4.089844 295.402344 4.28125 C 295.59375 4.46875 295.8125 4.617188 296.0625 4.71875 C 296.308594 4.824219 296.570312 4.875 296.835938 4.875 Z M 296.835938 4.875 " fill-opacity="1" fill-rule="nonzero"/></g><g clip-path="url(#d5caf0c38d)"><path fill="#d6d6d6" d="M 296.835938 123.832031 C 297.214844 123.832031 297.578125 123.902344 297.925781 124.046875 C 298.273438 124.191406 298.582031 124.398438 298.847656 124.664062 C 299.117188 124.929688 299.320312 125.238281 299.464844 125.585938 C 299.609375 125.933594 299.683594 126.296875 299.683594 126.675781 C 299.683594 127.050781 299.609375 127.414062 299.464844 127.761719 C 299.320312 128.113281 299.117188 128.417969 298.847656 128.6875 C 298.582031 128.953125 298.273438 129.15625 297.925781 129.300781 C 297.578125 129.445312 297.214844 129.519531 296.835938 129.519531 C 296.460938 129.519531 296.097656 129.445312 295.75 129.300781 C 295.402344 129.15625 295.09375 128.953125 294.828125 128.6875 C 294.558594 128.417969 294.355469 128.113281 294.210938 127.761719 C 294.066406 127.414062 293.992188 127.050781 293.992188 126.675781 C 293.992188 126.296875 294.066406 125.933594 294.210938 125.585938 C 294.355469 125.238281 294.5625 124.929688 294.828125 124.664062 C 295.09375 124.398438 295.402344 124.191406 295.75 124.046875 C 296.097656 123.902344 296.460938 123.832031 296.835938 123.832031 Z M 296.835938 128.707031 C 297.105469 128.707031 297.367188 128.65625 297.617188 128.550781 C 297.863281 128.449219 298.082031 128.300781 298.273438 128.109375 C 298.464844 127.921875 298.613281 127.699219 298.714844 127.453125 C 298.816406 127.203125 298.871094 126.945312 298.871094 126.675781 C 298.871094 126.40625 298.816406 126.144531 298.714844 125.898438 C 298.613281 125.648438 298.464844 125.429688 298.273438 125.238281 C 298.082031 125.046875 297.863281 124.902344 297.617188 124.796875 C 297.367188 124.695312 297.105469 124.644531 296.835938 124.644531 C 296.570312 124.644531 296.308594 124.695312 296.058594 124.796875 C 295.8125 124.902344 295.589844 125.046875 295.402344 125.238281 C 295.210938 125.429688 295.0625 125.648438 294.960938 125.898438 C 294.859375 126.144531 294.804688 126.40625 294.804688 126.675781 C 294.804688 126.945312 294.859375 127.203125 294.960938 127.453125 C 295.066406 127.699219 295.210938 127.917969 295.402344 128.109375 C 295.59375 128.300781 295.8125 128.449219 296.0625 128.550781 C 296.308594 128.652344 296.570312 128.707031 296.835938 128.707031 Z M 296.835938 128.707031 " fill-opacity="1" fill-rule="nonzero"/></g><path fill="#d6d6d6" d="M 281.398438 139.308594 C 281.773438 139.308594 282.136719 139.382812 282.484375 139.527344 C 282.835938 139.671875 283.140625 139.875 283.410156 140.144531 C 283.675781 140.410156 283.882812 140.71875 284.023438 141.066406 C 284.167969 141.414062 284.242188 141.777344 284.242188 142.152344 C 284.242188 142.53125 284.167969 142.894531 284.023438 143.242188 C 283.882812 143.589844 283.675781 143.898438 283.410156 144.164062 C 283.140625 144.433594 282.835938 144.636719 282.484375 144.78125 C 282.136719 144.925781 281.773438 144.996094 281.398438 144.996094 C 281.019531 144.996094 280.65625 144.925781 280.308594 144.78125 C 279.960938 144.636719 279.652344 144.433594 279.386719 144.164062 C 279.121094 143.898438 278.914062 143.589844 278.769531 143.242188 C 278.625 142.894531 278.554688 142.53125 278.554688 142.152344 C 278.554688 141.777344 278.625 141.414062 278.769531 141.066406 C 278.914062 140.71875 279.121094 140.410156 279.386719 140.144531 C 279.652344 139.875 279.960938 139.671875 280.308594 139.527344 C 280.65625 139.382812 281.019531 139.308594 281.398438 139.308594 Z M 281.398438 144.183594 C 281.667969 144.183594 281.925781 144.132812 282.175781 144.03125 C 282.425781 143.925781 282.644531 143.78125 282.835938 143.589844 C 283.023438 143.398438 283.171875 143.179688 283.273438 142.929688 C 283.378906 142.683594 283.429688 142.421875 283.429688 142.152344 C 283.429688 141.882812 283.378906 141.625 283.273438 141.375 C 283.171875 141.128906 283.023438 140.90625 282.835938 140.71875 C 282.644531 140.527344 282.425781 140.378906 282.175781 140.277344 C 281.925781 140.171875 281.667969 140.121094 281.398438 140.121094 C 281.128906 140.121094 280.867188 140.171875 280.621094 140.277344 C 280.371094 140.378906 280.152344 140.527344 279.960938 140.71875 C 279.769531 140.90625 279.625 141.128906 279.519531 141.375 C 279.417969 141.625 279.367188 141.882812 279.367188 142.152344 C 279.367188 142.421875 279.417969 142.683594 279.523438 142.929688 C 279.625 143.179688 279.773438 143.398438 279.960938 143.589844 C 280.152344 143.78125 280.371094 143.925781 280.621094 144.03125 C 280.871094 144.132812 281.128906 144.183594 281.398438 144.183594 Z M 281.398438 144.183594 " fill-opacity="1" fill-rule="nonzero"/><path fill="#d6d6d6" d="M 234.921875 129.132812 C 235.300781 129.132812 235.664062 129.203125 236.011719 129.347656 C 236.359375 129.492188 236.667969 129.699219 236.933594 129.964844 C 237.199219 130.230469 237.40625 130.539062 237.550781 130.886719 C 237.695312 131.234375 237.765625 131.597656 237.765625 131.976562 C 237.765625 132.351562 237.695312 132.714844 237.550781 133.066406 C 237.40625 133.414062 237.199219 133.722656 236.933594 133.988281 C 236.667969 134.253906 236.359375 134.460938 236.011719 134.605469 C 235.664062 134.75 235.300781 134.820312 234.921875 134.820312 C 234.546875 134.820312 234.183594 134.75 233.835938 134.605469 C 233.484375 134.460938 233.179688 134.253906 232.910156 133.988281 C 232.644531 133.722656 232.4375 133.414062 232.292969 133.066406 C 232.152344 132.714844 232.078125 132.351562 232.078125 131.976562 C 232.078125 131.597656 232.152344 131.238281 232.296875 130.886719 C 232.441406 130.539062 232.644531 130.234375 232.914062 129.964844 C 233.179688 129.699219 233.488281 129.492188 233.835938 129.347656 C 234.183594 129.203125 234.546875 129.132812 234.921875 129.132812 Z M 234.921875 134.007812 C 235.191406 134.007812 235.453125 133.957031 235.699219 133.851562 C 235.949219 133.75 236.167969 133.601562 236.359375 133.414062 C 236.550781 133.222656 236.695312 133.003906 236.800781 132.753906 C 236.902344 132.503906 236.953125 132.246094 236.953125 131.976562 C 236.953125 131.707031 236.902344 131.449219 236.800781 131.199219 C 236.695312 130.949219 236.550781 130.730469 236.359375 130.539062 C 236.167969 130.347656 235.949219 130.203125 235.699219 130.097656 C 235.453125 129.996094 235.191406 129.945312 234.921875 129.945312 C 234.652344 129.945312 234.394531 129.996094 234.144531 130.097656 C 233.894531 130.203125 233.675781 130.347656 233.484375 130.539062 C 233.296875 130.730469 233.148438 130.949219 233.046875 131.199219 C 232.941406 131.449219 232.890625 131.707031 232.890625 131.976562 C 232.890625 132.246094 232.941406 132.503906 233.046875 132.753906 C 233.148438 133 233.296875 133.222656 233.488281 133.410156 C 233.675781 133.601562 233.898438 133.75 234.144531 133.851562 C 234.394531 133.957031 234.652344 134.007812 234.921875 134.007812 Z M 234.921875 134.007812 " fill-opacity="1" fill-rule="nonzero"/><path fill="#d6d6d6" d="M 268.320312 2.4375 C 268.695312 2.4375 269.058594 2.511719 269.40625 2.65625 C 269.757812 2.796875 270.0625 3.003906 270.332031 3.269531 C 270.597656 3.539062 270.800781 3.84375 270.945312 4.195312 C 271.089844 4.542969 271.164062 4.90625 271.164062 5.28125 C 271.164062 5.660156 271.089844 6.023438 270.945312 6.371094 C 270.800781 6.71875 270.597656 7.027344 270.332031 7.292969 C 270.0625 7.558594 269.757812 7.765625 269.40625 7.910156 C 269.058594 8.054688 268.695312 8.125 268.320312 8.125 C 267.941406 8.125 267.578125 8.054688 267.230469 7.910156 C 266.882812 7.765625 266.574219 7.558594 266.308594 7.292969 C 266.042969 7.027344 265.835938 6.71875 265.691406 6.371094 C 265.546875 6.023438 265.476562 5.660156 265.476562 5.28125 C 265.476562 4.90625 265.546875 4.542969 265.691406 4.195312 C 265.835938 3.847656 266.042969 3.539062 266.308594 3.273438 C 266.574219 3.003906 266.882812 2.800781 267.230469 2.65625 C 267.578125 2.511719 267.941406 2.4375 268.320312 2.4375 Z M 268.320312 7.3125 C 268.589844 7.3125 268.847656 7.261719 269.097656 7.160156 C 269.34375 7.054688 269.566406 6.910156 269.753906 6.71875 C 269.945312 6.527344 270.09375 6.308594 270.195312 6.058594 C 270.300781 5.8125 270.351562 5.550781 270.351562 5.28125 C 270.351562 5.011719 270.300781 4.753906 270.195312 4.503906 C 270.09375 4.257812 269.945312 4.035156 269.753906 3.84375 C 269.566406 3.65625 269.34375 3.507812 269.097656 3.40625 C 268.847656 3.300781 268.589844 3.25 268.320312 3.25 C 268.050781 3.25 267.789062 3.300781 267.542969 3.40625 C 267.292969 3.507812 267.074219 3.65625 266.882812 3.84375 C 266.691406 4.035156 266.546875 4.257812 266.441406 4.503906 C 266.339844 4.753906 266.289062 5.011719 266.289062 5.28125 C 266.289062 5.550781 266.339844 5.808594 266.441406 6.058594 C 266.546875 6.308594 266.691406 6.527344 266.882812 6.71875 C 267.074219 6.910156 267.292969 7.054688 267.542969 7.160156 C 267.789062 7.261719 268.050781 7.3125 268.320312 7.3125 Z M 268.320312 7.3125 " fill-opacity="1" fill-rule="nonzero"/><path fill="#d6d6d6" d="M 221.882812 2.4375 C 222.257812 2.4375 222.621094 2.511719 222.96875 2.65625 C 223.316406 2.796875 223.625 3.003906 223.890625 3.269531 C 224.160156 3.539062 224.363281 3.84375 224.507812 4.195312 C 224.652344 4.542969 224.726562 4.90625 224.726562 5.28125 C 224.726562 5.660156 224.652344 6.023438 224.507812 6.371094 C 224.363281 6.71875 224.160156 7.027344 223.890625 7.292969 C 223.625 7.558594 223.316406 7.765625 222.96875 7.910156 C 222.621094 8.054688 222.257812 8.125 221.882812 8.125 C 221.503906 8.125 221.140625 8.054688 220.792969 7.910156 C 220.445312 7.765625 220.136719 7.558594 219.871094 7.292969 C 219.601562 7.027344 219.398438 6.71875 219.253906 6.371094 C 219.109375 6.023438 219.039062 5.660156 219.039062 5.28125 C 219.039062 4.90625 219.109375 4.542969 219.253906 4.195312 C 219.398438 3.847656 219.605469 3.539062 219.871094 3.273438 C 220.136719 3.003906 220.445312 2.800781 220.792969 2.65625 C 221.140625 2.511719 221.503906 2.4375 221.882812 2.4375 Z M 221.882812 7.3125 C 222.152344 7.3125 222.410156 7.261719 222.660156 7.160156 C 222.90625 7.054688 223.128906 6.910156 223.316406 6.71875 C 223.507812 6.527344 223.65625 6.308594 223.757812 6.058594 C 223.863281 5.8125 223.914062 5.550781 223.914062 5.28125 C 223.914062 5.011719 223.863281 4.753906 223.757812 4.503906 C 223.65625 4.257812 223.507812 4.035156 223.316406 3.84375 C 223.128906 3.65625 222.90625 3.507812 222.660156 3.40625 C 222.410156 3.300781 222.152344 3.25 221.882812 3.25 C 221.613281 3.25 221.351562 3.300781 221.105469 3.40625 C 220.855469 3.507812 220.636719 3.65625 220.445312 3.84375 C 220.253906 4.035156 220.109375 4.257812 220.003906 4.503906 C 219.902344 4.753906 219.851562 5.011719 219.851562 5.28125 C 219.851562 5.550781 219.902344 5.808594 220.003906 6.058594 C 220.109375 6.308594 220.253906 6.527344 220.445312 6.71875 C 220.636719 6.910156 220.855469 7.054688 221.105469 7.160156 C 221.351562 7.261719 221.613281 7.3125 221.882812 7.3125 Z M 221.882812 7.3125 " fill-opacity="1" fill-rule="nonzero"/><g clip-path="url(#246a5311a7)"><path fill="#d6d6d6" d="M 0.300781 98.152344 C 0.300781 97.832031 0.363281 97.519531 0.488281 97.222656 C 0.609375 96.921875 0.789062 96.660156 1.015625 96.429688 C 1.246094 96.203125 1.507812 96.027344 1.808594 95.902344 C 2.105469 95.777344 2.417969 95.714844 2.738281 95.714844 C 3.0625 95.714844 3.375 95.777344 3.671875 95.902344 C 3.972656 96.027344 4.234375 96.203125 4.464844 96.429688 C 4.691406 96.660156 4.867188 96.921875 4.992188 97.222656 C 5.117188 97.519531 5.175781 97.832031 5.175781 98.152344 C 5.175781 98.476562 5.117188 98.789062 4.992188 99.085938 C 4.867188 99.386719 4.691406 99.648438 4.464844 99.878906 C 4.234375 100.105469 3.972656 100.28125 3.671875 100.40625 C 3.375 100.53125 3.0625 100.59375 2.738281 100.59375 C 2.417969 100.59375 2.105469 100.53125 1.808594 100.40625 C 1.507812 100.28125 1.246094 100.105469 1.015625 99.878906 C 0.789062 99.648438 0.609375 99.386719 0.488281 99.085938 C 0.363281 98.789062 0.300781 98.476562 0.300781 98.152344 Z M 0.300781 98.152344 " fill-opacity="1" fill-rule="nonzero"/></g></g></g></g></g><g clip-path="url(#ed7305b80a)"><g mask="url(#900aa39b7b)"><g transform="matrix(1, 0, 0, 1, 0.000000000000000056, 302)"><g clip-path="url(#85895ad33b)"><g clip-path="url(#0a300e4fd0)"><path fill="#d6d6d6" d="M -8.535156 217.410156 L -9.242188 217.410156 L -9.242188 163.511719 L 31.179688 123.089844 L 31.675781 123.589844 L -8.535156 163.800781 Z M -8.535156 217.410156 " fill-opacity="1" fill-rule="nonzero"/></g><g clip-path="url(#3ad3444e37)"><path fill="#d6d6d6" d="M -8.636719 137.027344 L -9.136719 136.53125 L 31.28125 96.109375 L 58.160156 96.109375 L 84.933594 69.335938 L 85.429688 69.835938 L 58.449219 96.816406 L 31.574219 96.816406 Z M -8.636719 137.027344 " fill-opacity="1" fill-rule="nonzero"/></g><g clip-path="url(#93fbd32430)"><path fill="#d6d6d6" d="M -8.636719 123.589844 L -9.136719 123.089844 L 31.074219 82.878906 L 31.074219 56 L 58.054688 29.019531 L 58.554688 29.519531 L 31.78125 56.292969 L 31.78125 83.171875 Z M -8.636719 123.589844 " fill-opacity="1" fill-rule="nonzero"/></g><path fill="#d6d6d6" d="M 4.800781 217.660156 L 4.300781 217.160156 L 44.71875 176.742188 L 98.476562 176.742188 L 138.6875 136.53125 L 139.1875 137.027344 L 98.765625 177.445312 L 45.011719 177.445312 Z M 4.800781 217.660156 " fill-opacity="1" fill-rule="nonzero"/><path fill="#d6d6d6" d="M 45.011719 217.761719 L 17.988281 217.761719 L 17.988281 217.058594 L 44.71875 217.058594 L 71.597656 190.179688 L 125.351562 190.179688 L 179.003906 136.53125 L 179.5 137.027344 L 125.644531 190.886719 L 71.890625 190.886719 Z M 45.011719 217.761719 " fill-opacity="1" fill-rule="nonzero"/><path fill="#d6d6d6" d="M 4.800781 204.21875 L 4.300781 203.722656 L 57.953125 150.070312 L 57.953125 123.195312 L 84.933594 96.214844 L 85.429688 96.710938 L 58.65625 123.484375 L 58.65625 150.363281 Z M 4.800781 204.21875 " fill-opacity="1" fill-rule="nonzero"/><g clip-path="url(#e12b332909)"><path fill="#d6d6d6" d="M -8.535156 109.902344 L -9.242188 109.902344 L -9.242188 56 L -9.136719 55.898438 L 31.179688 15.582031 L 31.675781 16.082031 L -8.535156 56.292969 Z M -8.535156 109.902344 " fill-opacity="1" fill-rule="nonzero"/></g><path fill="#d6d6d6" d="M 4.902344 96.460938 L 4.199219 96.460938 L 4.199219 69.441406 L 4.300781 69.335938 L 71.492188 2.144531 L 71.992188 2.640625 L 4.902344 69.730469 Z M 4.902344 96.460938 " fill-opacity="1" fill-rule="nonzero"/><path fill="#d6d6d6" d="M 4.800781 177.34375 L 4.300781 176.84375 L 44.511719 136.632812 L 44.511719 109.902344 L 45.21875 109.902344 L 45.21875 136.925781 Z M 4.800781 177.34375 " fill-opacity="1" fill-rule="nonzero"/><path fill="#d6d6d6" d="M 71.992188 163.90625 L 71.492188 163.40625 L 125.144531 109.753906 L 125.144531 82.878906 L 138.6875 69.335938 L 139.1875 69.835938 L 125.851562 83.171875 L 125.851562 110.046875 Z M 71.992188 163.90625 " fill-opacity="1" fill-rule="nonzero"/><path fill="#d6d6d6" d="M 139.082031 217.761719 L 58.304688 217.761719 L 58.304688 217.058594 L 138.789062 217.058594 L 179.105469 176.742188 L 205.984375 176.742188 L 246.195312 136.53125 L 246.695312 137.027344 L 206.273438 177.445312 L 179.398438 177.445312 Z M 139.082031 217.761719 " fill-opacity="1" fill-rule="nonzero"/><path fill="#d6d6d6" d="M 179.605469 177.09375 L 178.898438 177.09375 L 178.898438 163.511719 L 219.320312 123.089844 L 219.816406 123.589844 L 179.605469 163.800781 Z M 179.605469 177.09375 " fill-opacity="1" fill-rule="nonzero"/><path fill="#d6d6d6" d="M 71.992188 137.027344 L 71.492188 136.53125 L 111.707031 96.316406 L 111.707031 56 L 125.246094 42.460938 L 125.746094 42.957031 L 112.410156 56.292969 L 112.410156 96.609375 Z M 71.992188 137.027344 " fill-opacity="1" fill-rule="nonzero"/><path fill="#d6d6d6" d="M 141.054688 136.78125 C 141.054688 137.058594 141 137.328125 140.890625 137.589844 C 140.785156 137.847656 140.632812 138.078125 140.433594 138.277344 C 140.234375 138.472656 140.007812 138.628906 139.746094 138.734375 C 139.488281 138.84375 139.21875 138.894531 138.9375 138.894531 C 138.65625 138.894531 138.386719 138.84375 138.125 138.734375 C 137.867188 138.628906 137.636719 138.472656 137.441406 138.277344 C 137.242188 138.078125 137.089844 137.847656 136.980469 137.589844 C 136.875 137.328125 136.820312 137.058594 136.820312 136.78125 C 136.820312 136.5 136.875 136.230469 136.980469 135.96875 C 137.089844 135.710938 137.242188 135.480469 137.441406 135.28125 C 137.636719 135.085938 137.867188 134.929688 138.125 134.824219 C 138.386719 134.714844 138.65625 134.664062 138.9375 134.664062 C 139.21875 134.664062 139.488281 134.714844 139.746094 134.824219 C 140.007812 134.929688 140.234375 135.085938 140.433594 135.28125 C 140.632812 135.480469 140.785156 135.710938 140.890625 135.96875 C 141 136.230469 141.054688 136.5 141.054688 136.78125 Z M 141.054688 136.78125 " fill-opacity="1" fill-rule="nonzero"/><path fill="#d6d6d6" d="M 181.367188 136.78125 C 181.367188 137.058594 181.316406 137.328125 181.207031 137.589844 C 181.101562 137.847656 180.945312 138.078125 180.75 138.277344 C 180.550781 138.472656 180.320312 138.628906 180.0625 138.734375 C 179.800781 138.84375 179.53125 138.894531 179.25 138.894531 C 178.972656 138.894531 178.699219 138.84375 178.441406 138.734375 C 178.183594 138.628906 177.953125 138.472656 177.753906 138.277344 C 177.554688 138.078125 177.402344 137.847656 177.296875 137.589844 C 177.1875 137.328125 177.136719 137.058594 177.136719 136.78125 C 177.136719 136.5 177.1875 136.230469 177.296875 135.96875 C 177.402344 135.710938 177.554688 135.480469 177.753906 135.28125 C 177.953125 135.085938 178.183594 134.929688 178.441406 134.824219 C 178.699219 134.714844 178.972656 134.664062 179.25 134.664062 C 179.53125 134.664062 179.800781 134.714844 180.0625 134.824219 C 180.320312 134.929688 180.550781 135.085938 180.75 135.28125 C 180.945312 135.480469 181.101562 135.710938 181.207031 135.96875 C 181.316406 136.230469 181.367188 136.5 181.367188 136.78125 Z M 181.367188 136.78125 " fill-opacity="1" fill-rule="nonzero"/><path fill="#d6d6d6" d="M 221.683594 123.339844 C 221.683594 123.621094 221.632812 123.890625 221.523438 124.152344 C 221.417969 124.410156 221.261719 124.640625 221.066406 124.835938 C 220.867188 125.035156 220.636719 125.1875 220.378906 125.296875 C 220.117188 125.402344 219.847656 125.457031 219.566406 125.457031 C 219.289062 125.457031 219.019531 125.402344 218.757812 125.296875 C 218.5 125.1875 218.269531 125.035156 218.070312 124.835938 C 217.875 124.640625 217.71875 124.410156 217.613281 124.152344 C 217.503906 123.890625 217.453125 123.621094 217.453125 123.339844 C 217.453125 123.058594 217.503906 122.789062 217.613281 122.53125 C 217.71875 122.269531 217.875 122.042969 218.070312 121.84375 C 218.269531 121.644531 218.5 121.492188 218.757812 121.386719 C 219.019531 121.277344 219.289062 121.222656 219.566406 121.222656 C 219.847656 121.222656 220.117188 121.277344 220.378906 121.386719 C 220.636719 121.492188 220.867188 121.644531 221.066406 121.84375 C 221.261719 122.042969 221.417969 122.269531 221.523438 122.53125 C 221.632812 122.789062 221.683594 123.058594 221.683594 123.339844 Z M 221.683594 123.339844 " fill-opacity="1" fill-rule="nonzero"/><path fill="#d6d6d6" d="M 141.054688 69.585938 C 141.054688 69.867188 141 70.136719 140.890625 70.398438 C 140.785156 70.65625 140.632812 70.882812 140.433594 71.082031 C 140.234375 71.28125 140.007812 71.433594 139.746094 71.542969 C 139.488281 71.648438 139.21875 71.703125 138.9375 71.703125 C 138.65625 71.703125 138.386719 71.648438 138.125 71.542969 C 137.867188 71.433594 137.636719 71.28125 137.441406 71.082031 C 137.242188 70.882812 137.089844 70.65625 136.980469 70.398438 C 136.875 70.136719 136.820312 69.867188 136.820312 69.585938 C 136.820312 69.304688 136.875 69.035156 136.980469 68.777344 C 137.089844 68.515625 137.242188 68.289062 137.441406 68.089844 C 137.636719 67.890625 137.867188 67.738281 138.125 67.632812 C 138.386719 67.523438 138.65625 67.46875 138.9375 67.46875 C 139.21875 67.46875 139.488281 67.523438 139.746094 67.632812 C 140.007812 67.738281 140.234375 67.890625 140.433594 68.089844 C 140.632812 68.289062 140.785156 68.515625 140.890625 68.777344 C 141 69.035156 141.054688 69.304688 141.054688 69.585938 Z M 141.054688 69.585938 " fill-opacity="1" fill-rule="nonzero"/><path fill="#d6d6d6" d="M 87.296875 96.460938 C 87.296875 96.742188 87.242188 97.011719 87.136719 97.273438 C 87.03125 97.53125 86.875 97.761719 86.679688 97.960938 C 86.480469 98.15625 86.25 98.3125 85.992188 98.417969 C 85.730469 98.527344 85.460938 98.578125 85.179688 98.578125 C 84.902344 98.578125 84.628906 98.527344 84.371094 98.417969 C 84.113281 98.3125 83.882812 98.15625 83.683594 97.960938 C 83.484375 97.761719 83.332031 97.53125 83.226562 97.273438 C 83.117188 97.011719 83.066406 96.742188 83.066406 96.460938 C 83.066406 96.183594 83.117188 95.914062 83.226562 95.652344 C 83.332031 95.394531 83.484375 95.164062 83.683594 94.964844 C 83.882812 94.769531 84.113281 94.613281 84.371094 94.507812 C 84.628906 94.398438 84.902344 94.347656 85.179688 94.347656 C 85.460938 94.347656 85.730469 94.398438 85.992188 94.507812 C 86.25 94.613281 86.480469 94.769531 86.679688 94.964844 C 86.875 95.164062 87.03125 95.394531 87.136719 95.652344 C 87.242188 95.914062 87.296875 96.183594 87.296875 96.460938 Z M 87.296875 96.460938 " fill-opacity="1" fill-rule="nonzero"/><path fill="#d6d6d6" d="M 33.542969 15.832031 C 33.542969 16.113281 33.488281 16.382812 33.382812 16.640625 C 33.273438 16.902344 33.121094 17.128906 32.925781 17.328125 C 32.726562 17.527344 32.496094 17.679688 32.238281 17.785156 C 31.976562 17.894531 31.707031 17.949219 31.425781 17.949219 C 31.148438 17.949219 30.875 17.894531 30.617188 17.785156 C 30.359375 17.679688 30.128906 17.527344 29.929688 17.328125 C 29.730469 17.128906 29.578125 16.902344 29.472656 16.640625 C 29.363281 16.382812 29.3125 16.113281 29.3125 15.832031 C 29.3125 15.550781 29.363281 15.28125 29.472656 15.019531 C 29.578125 14.761719 29.730469 14.53125 29.929688 14.335938 C 30.128906 14.136719 30.359375 13.984375 30.617188 13.875 C 30.875 13.769531 31.148438 13.714844 31.425781 13.714844 C 31.707031 13.714844 31.976562 13.769531 32.238281 13.875 C 32.496094 13.984375 32.726562 14.136719 32.925781 14.335938 C 33.121094 14.53125 33.273438 14.761719 33.382812 15.019531 C 33.488281 15.28125 33.542969 15.550781 33.542969 15.832031 Z M 33.542969 15.832031 " fill-opacity="1" fill-rule="nonzero"/><path fill="#d6d6d6" d="M 127.613281 41.910156 C 127.613281 42.191406 127.5625 42.460938 127.453125 42.71875 C 127.347656 42.976562 127.191406 43.207031 126.996094 43.40625 C 126.796875 43.605469 126.566406 43.757812 126.308594 43.863281 C 126.046875 43.972656 125.777344 44.027344 125.496094 44.027344 C 125.21875 44.027344 124.945312 43.972656 124.6875 43.863281 C 124.429688 43.757812 124.199219 43.605469 124 43.40625 C 123.800781 43.207031 123.648438 42.976562 123.542969 42.71875 C 123.433594 42.460938 123.382812 42.191406 123.382812 41.910156 C 123.382812 41.628906 123.433594 41.359375 123.542969 41.097656 C 123.648438 40.839844 123.800781 40.609375 124 40.414062 C 124.199219 40.214844 124.429688 40.0625 124.6875 39.953125 C 124.945312 39.847656 125.21875 39.792969 125.496094 39.792969 C 125.777344 39.792969 126.046875 39.847656 126.308594 39.953125 C 126.566406 40.0625 126.796875 40.214844 126.996094 40.414062 C 127.191406 40.609375 127.347656 40.839844 127.453125 41.097656 C 127.5625 41.359375 127.613281 41.628906 127.613281 41.910156 Z M 127.613281 41.910156 " fill-opacity="1" fill-rule="nonzero"/><path fill="#d6d6d6" d="M 87.296875 69.585938 C 87.296875 69.867188 87.242188 70.136719 87.136719 70.398438 C 87.03125 70.65625 86.875 70.882812 86.679688 71.082031 C 86.480469 71.28125 86.25 71.433594 85.992188 71.542969 C 85.730469 71.648438 85.460938 71.703125 85.179688 71.703125 C 84.902344 71.703125 84.628906 71.648438 84.371094 71.542969 C 84.113281 71.433594 83.882812 71.28125 83.683594 71.082031 C 83.484375 70.882812 83.332031 70.65625 83.226562 70.398438 C 83.117188 70.136719 83.066406 69.867188 83.066406 69.585938 C 83.066406 69.304688 83.117188 69.035156 83.226562 68.777344 C 83.332031 68.515625 83.484375 68.289062 83.683594 68.089844 C 83.882812 67.890625 84.113281 67.738281 84.371094 67.632812 C 84.628906 67.523438 84.902344 67.46875 85.179688 67.46875 C 85.460938 67.46875 85.730469 67.523438 85.992188 67.632812 C 86.25 67.738281 86.480469 67.890625 86.679688 68.089844 C 86.875 68.289062 87.03125 68.515625 87.136719 68.777344 C 87.242188 69.035156 87.296875 69.304688 87.296875 69.585938 Z M 87.296875 69.585938 " fill-opacity="1" fill-rule="nonzero"/><path fill="#d6d6d6" d="M 60.421875 29.269531 C 60.421875 29.550781 60.367188 29.820312 60.261719 30.078125 C 60.152344 30.339844 60 30.566406 59.800781 30.765625 C 59.601562 30.964844 59.375 31.117188 59.113281 31.226562 C 58.855469 31.332031 58.585938 31.386719 58.304688 31.386719 C 58.023438 31.386719 57.753906 31.332031 57.496094 31.226562 C 57.234375 31.117188 57.007812 30.964844 56.808594 30.765625 C 56.609375 30.566406 56.457031 30.339844 56.347656 30.078125 C 56.242188 29.820312 56.1875 29.550781 56.1875 29.269531 C 56.1875 28.988281 56.242188 28.71875 56.347656 28.460938 C 56.457031 28.199219 56.609375 27.972656 56.808594 27.773438 C 57.007812 27.574219 57.234375 27.421875 57.496094 27.316406 C 57.753906 27.207031 58.023438 27.152344 58.304688 27.152344 C 58.585938 27.152344 58.855469 27.207031 59.113281 27.316406 C 59.375 27.421875 59.601562 27.574219 59.800781 27.773438 C 60 27.972656 60.152344 28.199219 60.261719 28.460938 C 60.367188 28.71875 60.421875 28.988281 60.421875 29.269531 Z M 60.421875 29.269531 " fill-opacity="1" fill-rule="nonzero"/><g clip-path="url(#df4da9a3f4)"><path fill="#d6d6d6" d="M 73.859375 2.394531 C 73.859375 2.675781 73.808594 2.945312 73.699219 3.203125 C 73.59375 3.464844 73.4375 3.691406 73.242188 3.890625 C 73.042969 4.089844 72.8125 4.242188 72.554688 4.347656 C 72.292969 4.457031 72.023438 4.511719 71.742188 4.511719 C 71.464844 4.511719 71.191406 4.457031 70.933594 4.347656 C 70.675781 4.242188 70.445312 4.089844 70.246094 3.890625 C 70.046875 3.691406 69.894531 3.464844 69.789062 3.203125 C 69.679688 2.945312 69.628906 2.675781 69.628906 2.394531 C 69.628906 2.113281 69.679688 1.84375 69.789062 1.582031 C 69.894531 1.324219 70.046875 1.09375 70.246094 0.898438 C 70.445312 0.699219 70.675781 0.546875 70.933594 0.4375 C 71.191406 0.332031 71.464844 0.277344 71.742188 0.277344 C 72.023438 0.277344 72.292969 0.332031 72.554688 0.4375 C 72.8125 0.546875 73.042969 0.699219 73.242188 0.898438 C 73.4375 1.09375 73.59375 1.324219 73.699219 1.582031 C 73.808594 1.84375 73.859375 2.113281 73.859375 2.394531 Z M 73.859375 2.394531 " fill-opacity="1" fill-rule="nonzero"/></g><path fill="#d6d6d6" d="M 73.859375 136.78125 C 73.859375 137.058594 73.808594 137.328125 73.699219 137.589844 C 73.59375 137.847656 73.4375 138.078125 73.242188 138.277344 C 73.042969 138.472656 72.8125 138.628906 72.554688 138.734375 C 72.292969 138.84375 72.023438 138.894531 71.742188 138.894531 C 71.464844 138.894531 71.191406 138.84375 70.933594 138.734375 C 70.675781 138.628906 70.445312 138.472656 70.246094 138.277344 C 70.046875 138.078125 69.894531 137.847656 69.789062 137.589844 C 69.679688 137.328125 69.628906 137.058594 69.628906 136.78125 C 69.628906 136.5 69.679688 136.230469 69.789062 135.96875 C 69.894531 135.710938 70.046875 135.480469 70.246094 135.28125 C 70.445312 135.085938 70.675781 134.929688 70.933594 134.824219 C 71.191406 134.714844 71.464844 134.664062 71.742188 134.664062 C 72.023438 134.664062 72.292969 134.714844 72.554688 134.824219 C 72.8125 134.929688 73.042969 135.085938 73.242188 135.28125 C 73.4375 135.480469 73.59375 135.710938 73.699219 135.96875 C 73.808594 136.230469 73.859375 136.5 73.859375 136.78125 Z M 73.859375 136.78125 " fill-opacity="1" fill-rule="nonzero"/><path fill="#d6d6d6" d="M 73.859375 163.65625 C 73.859375 163.9375 73.808594 164.207031 73.699219 164.464844 C 73.59375 164.726562 73.4375 164.953125 73.242188 165.152344 C 73.042969 165.351562 72.8125 165.503906 72.554688 165.609375 C 72.292969 165.71875 72.023438 165.773438 71.742188 165.773438 C 71.464844 165.773438 71.191406 165.71875 70.933594 165.609375 C 70.675781 165.503906 70.445312 165.351562 70.246094 165.152344 C 70.046875 164.953125 69.894531 164.726562 69.789062 164.464844 C 69.679688 164.207031 69.628906 163.9375 69.628906 163.65625 C 69.628906 163.375 69.679688 163.105469 69.789062 162.84375 C 69.894531 162.585938 70.046875 162.359375 70.246094 162.160156 C 70.445312 161.960938 70.675781 161.808594 70.933594 161.699219 C 71.191406 161.59375 71.464844 161.539062 71.742188 161.539062 C 72.023438 161.539062 72.292969 161.59375 72.554688 161.699219 C 72.8125 161.808594 73.042969 161.960938 73.242188 162.160156 C 73.4375 162.359375 73.59375 162.585938 73.699219 162.84375 C 73.808594 163.105469 73.859375 163.375 73.859375 163.65625 Z M 73.859375 163.65625 " fill-opacity="1" fill-rule="nonzero"/><g clip-path="url(#0b342b62b6)"><path fill="#d6d6d6" d="M 6.667969 217.410156 C 6.667969 217.691406 6.613281 217.960938 6.507812 218.21875 C 6.398438 218.480469 6.246094 218.707031 6.046875 218.90625 C 5.847656 219.105469 5.621094 219.257812 5.359375 219.363281 C 5.101562 219.472656 4.832031 219.527344 4.550781 219.527344 C 4.269531 219.527344 4 219.472656 3.742188 219.363281 C 3.480469 219.257812 3.253906 219.105469 3.054688 218.90625 C 2.855469 218.707031 2.703125 218.480469 2.59375 218.21875 C 2.488281 217.960938 2.433594 217.691406 2.433594 217.410156 C 2.433594 217.128906 2.488281 216.859375 2.59375 216.597656 C 2.703125 216.339844 2.855469 216.113281 3.054688 215.914062 C 3.253906 215.714844 3.480469 215.5625 3.742188 215.453125 C 4 215.347656 4.269531 215.292969 4.550781 215.292969 C 4.832031 215.292969 5.101562 215.347656 5.359375 215.453125 C 5.621094 215.5625 5.847656 215.714844 6.046875 215.914062 C 6.246094 216.113281 6.398438 216.339844 6.507812 216.597656 C 6.613281 216.859375 6.667969 217.128906 6.667969 217.410156 Z M 6.667969 217.410156 " fill-opacity="1" fill-rule="nonzero"/></g><path fill="#d6d6d6" d="M 6.667969 203.972656 C 6.667969 204.253906 6.613281 204.523438 6.507812 204.78125 C 6.398438 205.042969 6.246094 205.269531 6.046875 205.46875 C 5.847656 205.667969 5.621094 205.820312 5.359375 205.925781 C 5.101562 206.035156 4.832031 206.089844 4.550781 206.089844 C 4.269531 206.089844 4 206.035156 3.742188 205.925781 C 3.480469 205.820312 3.253906 205.667969 3.054688 205.46875 C 2.855469 205.269531 2.703125 205.042969 2.59375 204.78125 C 2.488281 204.523438 2.433594 204.253906 2.433594 203.972656 C 2.433594 203.691406 2.488281 203.421875 2.59375 203.164062 C 2.703125 202.902344 2.855469 202.675781 3.054688 202.476562 C 3.253906 202.277344 3.480469 202.125 3.742188 202.015625 C 4 201.910156 4.269531 201.855469 4.550781 201.855469 C 4.832031 201.855469 5.101562 201.910156 5.359375 202.015625 C 5.621094 202.125 5.847656 202.277344 6.046875 202.476562 C 6.246094 202.675781 6.398438 202.902344 6.507812 203.164062 C 6.613281 203.421875 6.667969 203.691406 6.667969 203.972656 Z M 6.667969 203.972656 " fill-opacity="1" fill-rule="nonzero"/><path fill="#d6d6d6" d="M 33.542969 123.339844 C 33.542969 123.621094 33.488281 123.890625 33.382812 124.152344 C 33.273438 124.410156 33.121094 124.640625 32.925781 124.835938 C 32.726562 125.035156 32.496094 125.1875 32.238281 125.296875 C 31.976562 125.402344 31.707031 125.457031 31.425781 125.457031 C 31.148438 125.457031 30.875 125.402344 30.617188 125.296875 C 30.359375 125.1875 30.128906 125.035156 29.929688 124.835938 C 29.730469 124.640625 29.578125 124.410156 29.472656 124.152344 C 29.363281 123.890625 29.3125 123.621094 29.3125 123.339844 C 29.3125 123.058594 29.363281 122.789062 29.472656 122.53125 C 29.578125 122.269531 29.730469 122.042969 29.929688 121.84375 C 30.128906 121.644531 30.359375 121.492188 30.617188 121.386719 C 30.875 121.277344 31.148438 121.222656 31.425781 121.222656 C 31.707031 121.222656 31.976562 121.277344 32.238281 121.386719 C 32.496094 121.492188 32.726562 121.644531 32.925781 121.84375 C 33.121094 122.042969 33.273438 122.269531 33.382812 122.53125 C 33.488281 122.789062 33.542969 123.058594 33.542969 123.339844 Z M 33.542969 123.339844 " fill-opacity="1" fill-rule="nonzero"/><path fill="#d6d6d6" d="M 6.667969 177.09375 C 6.667969 177.375 6.613281 177.644531 6.507812 177.90625 C 6.398438 178.164062 6.246094 178.394531 6.046875 178.589844 C 5.847656 178.789062 5.621094 178.941406 5.359375 179.050781 C 5.101562 179.15625 4.832031 179.210938 4.550781 179.210938 C 4.269531 179.210938 4 179.15625 3.742188 179.050781 C 3.480469 178.941406 3.253906 178.789062 3.054688 178.589844 C 2.855469 178.394531 2.703125 178.164062 2.59375 177.90625 C 2.488281 177.644531 2.433594 177.375 2.433594 177.09375 C 2.433594 176.8125 2.488281 176.542969 2.59375 176.285156 C 2.703125 176.023438 2.855469 175.796875 3.054688 175.597656 C 3.253906 175.398438 3.480469 175.246094 3.742188 175.140625 C 4 175.03125 4.269531 174.976562 4.550781 174.976562 C 4.832031 174.976562 5.101562 175.03125 5.359375 175.140625 C 5.621094 175.246094 5.847656 175.398438 6.046875 175.597656 C 6.246094 175.796875 6.398438 176.023438 6.507812 176.285156 C 6.613281 176.542969 6.667969 176.8125 6.667969 177.09375 Z M 6.667969 177.09375 " fill-opacity="1" fill-rule="nonzero"/><path fill="#d6d6d6" d="M 4.515625 101.046875 C 4.191406 101.046875 3.875 100.984375 3.570312 100.859375 C 3.269531 100.734375 3.003906 100.558594 2.769531 100.324219 C 2.539062 100.09375 2.359375 99.828125 2.234375 99.523438 C 2.109375 99.222656 2.046875 98.90625 2.046875 98.578125 C 2.046875 98.253906 2.109375 97.9375 2.234375 97.632812 C 2.359375 97.332031 2.539062 97.066406 2.769531 96.832031 C 3.003906 96.601562 3.269531 96.421875 3.570312 96.296875 C 3.875 96.171875 4.191406 96.109375 4.515625 96.109375 C 4.84375 96.109375 5.160156 96.171875 5.460938 96.296875 C 5.765625 96.421875 6.03125 96.601562 6.261719 96.832031 C 6.496094 97.066406 6.671875 97.332031 6.796875 97.632812 C 6.925781 97.9375 6.988281 98.253906 6.988281 98.578125 C 6.984375 98.90625 6.921875 99.222656 6.796875 99.523438 C 6.671875 99.828125 6.492188 100.09375 6.261719 100.324219 C 6.03125 100.554688 5.765625 100.734375 5.460938 100.859375 C 5.160156 100.984375 4.84375 101.046875 4.515625 101.046875 Z M 4.515625 96.816406 C 4.285156 96.816406 4.058594 96.859375 3.84375 96.949219 C 3.625 97.039062 3.433594 97.167969 3.269531 97.332031 C 3.105469 97.496094 2.976562 97.6875 2.886719 97.90625 C 2.796875 98.121094 2.753906 98.34375 2.753906 98.578125 C 2.753906 98.8125 2.796875 99.039062 2.886719 99.253906 C 2.976562 99.46875 3.105469 99.660156 3.269531 99.828125 C 3.433594 99.992188 3.625 100.121094 3.84375 100.207031 C 4.058594 100.296875 4.285156 100.34375 4.515625 100.34375 C 4.75 100.34375 4.976562 100.296875 5.191406 100.207031 C 5.410156 100.121094 5.597656 99.992188 5.765625 99.828125 C 5.929688 99.660156 6.058594 99.46875 6.148438 99.253906 C 6.234375 99.039062 6.28125 98.8125 6.28125 98.578125 C 6.28125 98.34375 6.234375 98.121094 6.144531 97.90625 C 6.054688 97.6875 5.929688 97.5 5.761719 97.332031 C 5.597656 97.167969 5.40625 97.039062 5.191406 96.949219 C 4.976562 96.859375 4.75 96.816406 4.515625 96.816406 Z M 4.515625 96.816406 " fill-opacity="1" fill-rule="nonzero"/><path fill="#d6d6d6" d="M 44.867188 109.886719 C 44.539062 109.882812 44.222656 109.820312 43.921875 109.695312 C 43.617188 109.570312 43.351562 109.394531 43.121094 109.160156 C 42.886719 108.929688 42.710938 108.664062 42.585938 108.359375 C 42.460938 108.058594 42.398438 107.742188 42.398438 107.414062 C 42.398438 107.089844 42.460938 106.773438 42.585938 106.46875 C 42.710938 106.167969 42.886719 105.902344 43.121094 105.667969 C 43.351562 105.4375 43.617188 105.257812 43.921875 105.132812 C 44.222656 105.007812 44.539062 104.945312 44.867188 104.945312 C 45.195312 104.945312 45.507812 105.007812 45.8125 105.132812 C 46.113281 105.257812 46.378906 105.4375 46.613281 105.667969 C 46.84375 105.902344 47.023438 106.167969 47.148438 106.46875 C 47.273438 106.773438 47.335938 107.089844 47.335938 107.414062 C 47.335938 107.742188 47.273438 108.058594 47.148438 108.359375 C 47.019531 108.664062 46.84375 108.929688 46.613281 109.160156 C 46.378906 109.390625 46.113281 109.570312 45.8125 109.695312 C 45.507812 109.820312 45.195312 109.882812 44.867188 109.886719 Z M 44.867188 105.652344 C 44.632812 105.652344 44.40625 105.695312 44.191406 105.785156 C 43.976562 105.875 43.785156 106.003906 43.617188 106.167969 C 43.453125 106.332031 43.324219 106.523438 43.238281 106.742188 C 43.148438 106.957031 43.101562 107.179688 43.101562 107.414062 C 43.101562 107.648438 43.148438 107.875 43.238281 108.089844 C 43.324219 108.304688 43.453125 108.496094 43.617188 108.664062 C 43.785156 108.828125 43.976562 108.957031 44.191406 109.046875 C 44.40625 109.132812 44.632812 109.179688 44.867188 109.179688 C 45.101562 109.179688 45.324219 109.132812 45.542969 109.046875 C 45.757812 108.957031 45.949219 108.828125 46.113281 108.664062 C 46.277344 108.496094 46.40625 108.304688 46.496094 108.089844 C 46.585938 107.875 46.628906 107.648438 46.628906 107.414062 C 46.628906 107.183594 46.585938 106.957031 46.496094 106.742188 C 46.40625 106.523438 46.277344 106.335938 46.113281 106.167969 C 45.945312 106.003906 45.757812 105.875 45.539062 105.785156 C 45.324219 105.695312 45.101562 105.652344 44.867188 105.652344 Z M 44.867188 105.652344 " fill-opacity="1" fill-rule="nonzero"/><g clip-path="url(#6850129834)"><path fill="#d6d6d6" d="M 15.871094 219.878906 C 15.542969 219.878906 15.230469 219.816406 14.925781 219.691406 C 14.625 219.566406 14.355469 219.386719 14.125 219.15625 C 13.894531 218.925781 13.714844 218.65625 13.589844 218.355469 C 13.464844 218.050781 13.402344 217.738281 13.402344 217.410156 C 13.402344 217.082031 13.464844 216.765625 13.589844 216.464844 C 13.714844 216.160156 13.894531 215.894531 14.125 215.664062 C 14.355469 215.433594 14.625 215.253906 14.925781 215.128906 C 15.230469 215.003906 15.542969 214.941406 15.871094 214.941406 C 16.199219 214.941406 16.515625 215.003906 16.816406 215.128906 C 17.121094 215.253906 17.386719 215.433594 17.617188 215.664062 C 17.847656 215.894531 18.027344 216.160156 18.152344 216.464844 C 18.277344 216.765625 18.339844 217.082031 18.339844 217.410156 C 18.339844 217.738281 18.277344 218.050781 18.152344 218.355469 C 18.027344 218.65625 17.847656 218.921875 17.617188 219.15625 C 17.386719 219.386719 17.117188 219.566406 16.816406 219.691406 C 16.515625 219.816406 16.199219 219.878906 15.871094 219.878906 Z M 15.871094 215.644531 C 15.636719 215.644531 15.414062 215.691406 15.195312 215.78125 C 14.980469 215.871094 14.789062 215.996094 14.625 216.164062 C 14.460938 216.328125 14.332031 216.519531 14.242188 216.734375 C 14.152344 216.949219 14.109375 217.175781 14.109375 217.410156 C 14.109375 217.644531 14.152344 217.867188 14.242188 218.085938 C 14.332031 218.300781 14.460938 218.492188 14.625 218.65625 C 14.789062 218.820312 14.980469 218.949219 15.195312 219.039062 C 15.414062 219.128906 15.636719 219.171875 15.871094 219.171875 C 16.105469 219.171875 16.332031 219.128906 16.546875 219.039062 C 16.761719 218.949219 16.953125 218.820312 17.117188 218.65625 C 17.285156 218.492188 17.410156 218.300781 17.5 218.085938 C 17.589844 217.867188 17.636719 217.644531 17.636719 217.410156 C 17.636719 217.175781 17.589844 216.949219 17.5 216.734375 C 17.410156 216.519531 17.285156 216.328125 17.117188 216.164062 C 16.953125 215.996094 16.761719 215.871094 16.546875 215.78125 C 16.332031 215.691406 16.105469 215.644531 15.871094 215.644531 Z M 15.871094 215.644531 " fill-opacity="1" fill-rule="nonzero"/></g><g clip-path="url(#87011588e3)"><path fill="#d6d6d6" d="M 56.1875 219.878906 C 55.859375 219.878906 55.546875 219.816406 55.242188 219.691406 C 54.941406 219.566406 54.675781 219.386719 54.441406 219.15625 C 54.210938 218.925781 54.03125 218.65625 53.90625 218.355469 C 53.78125 218.050781 53.71875 217.738281 53.71875 217.410156 C 53.71875 217.082031 53.78125 216.765625 53.90625 216.464844 C 54.03125 216.164062 54.210938 215.894531 54.441406 215.664062 C 54.675781 215.433594 54.941406 215.253906 55.242188 215.128906 C 55.546875 215.003906 55.859375 214.941406 56.1875 214.941406 C 56.515625 214.941406 56.832031 215.003906 57.132812 215.128906 C 57.4375 215.253906 57.703125 215.433594 57.933594 215.664062 C 58.167969 215.894531 58.34375 216.160156 58.46875 216.464844 C 58.59375 216.765625 58.65625 217.082031 58.65625 217.410156 C 58.65625 217.738281 58.59375 218.050781 58.46875 218.355469 C 58.34375 218.65625 58.164062 218.921875 57.933594 219.15625 C 57.703125 219.386719 57.433594 219.566406 57.132812 219.691406 C 56.832031 219.816406 56.515625 219.878906 56.1875 219.878906 Z M 56.1875 215.644531 C 55.953125 215.644531 55.730469 215.691406 55.511719 215.78125 C 55.296875 215.871094 55.105469 215.996094 54.941406 216.164062 C 54.777344 216.328125 54.648438 216.519531 54.558594 216.734375 C 54.46875 216.949219 54.425781 217.175781 54.425781 217.410156 C 54.425781 217.644531 54.46875 217.867188 54.558594 218.085938 C 54.648438 218.300781 54.777344 218.492188 54.941406 218.65625 C 55.105469 218.820312 55.296875 218.949219 55.511719 219.039062 C 55.730469 219.128906 55.953125 219.171875 56.1875 219.171875 C 56.421875 219.171875 56.648438 219.128906 56.863281 219.039062 C 57.078125 218.949219 57.269531 218.820312 57.4375 218.65625 C 57.601562 218.492188 57.726562 218.300781 57.816406 218.085938 C 57.90625 217.867188 57.953125 217.644531 57.953125 217.410156 C 57.953125 217.175781 57.90625 216.949219 57.816406 216.734375 C 57.726562 216.519531 57.601562 216.328125 57.433594 216.164062 C 57.269531 215.996094 57.078125 215.871094 56.863281 215.78125 C 56.648438 215.691406 56.421875 215.644531 56.1875 215.644531 Z M 56.1875 215.644531 " fill-opacity="1" fill-rule="nonzero"/></g><g clip-path="url(#17d34f1bcf)"><path fill="#d6d6d6" d="M 248.5625 136.78125 C 248.5625 137.058594 248.507812 137.328125 248.398438 137.589844 C 248.292969 137.847656 248.140625 138.078125 247.941406 138.277344 C 247.742188 138.472656 247.515625 138.628906 247.253906 138.734375 C 246.996094 138.84375 246.726562 138.894531 246.445312 138.894531 C 246.164062 138.894531 245.894531 138.84375 245.632812 138.734375 C 245.375 138.628906 245.144531 138.472656 244.949219 138.277344 C 244.75 138.078125 244.597656 137.847656 244.488281 137.589844 C 244.382812 137.328125 244.328125 137.058594 244.328125 136.78125 C 244.328125 136.5 244.382812 136.230469 244.488281 135.96875 C 244.597656 135.710938 244.75 135.480469 244.949219 135.28125 C 245.144531 135.085938 245.375 134.929688 245.632812 134.824219 C 245.894531 134.714844 246.164062 134.664062 246.445312 134.664062 C 246.726562 134.664062 246.996094 134.714844 247.253906 134.824219 C 247.515625 134.929688 247.742188 135.085938 247.941406 135.28125 C 248.140625 135.480469 248.292969 135.710938 248.398438 135.96875 C 248.507812 136.230469 248.5625 136.5 248.5625 136.78125 Z M 248.5625 136.78125 " fill-opacity="1" fill-rule="nonzero"/></g></g></g></g></g><g clip-path="url(#f5d0d9bfb8)"><g mask="url(#99932f61bb)"><g transform="matrix(1, 0, 0, 1, 149, 265)"><g clip-path="url(#ee3cd3dff7)"><g clip-path="url(#a6d70c1eee)"><path fill="#d6d6d6" d="M 28.578125 72.738281 L 109.269531 72.738281 L 128.027344 42.730469 L 224.597656 42.730469 C 224.816406 42.730469 225 42.558594 225 42.328125 C 225 42.113281 224.828125 41.929688 224.597656 41.929688 L 127.59375 41.929688 L 108.832031 71.9375 L 28.96875 71.9375 L 6.582031 42.089844 C 6.457031 41.917969 6.207031 41.882812 6.035156 42.007812 C 5.863281 42.136719 5.828125 42.386719 5.953125 42.558594 Z M 28.578125 72.738281 " fill-opacity="1" fill-rule="nonzero"/></g><g clip-path="url(#86adaa7776)"><path fill="#d6d6d6" d="M 158.574219 42.730469 C 158.65625 42.730469 158.726562 42.707031 158.792969 42.660156 C 158.976562 42.535156 159.023438 42.296875 158.894531 42.113281 L 134.773438 6.671875 L 55.035156 6.671875 C 54.816406 6.671875 54.632812 6.84375 54.632812 7.070312 C 54.632812 7.289062 54.804688 7.472656 55.035156 7.472656 L 134.363281 7.472656 L 158.257812 42.558594 C 158.324219 42.660156 158.449219 42.730469 158.574219 42.730469 Z M 158.574219 42.730469 " fill-opacity="1" fill-rule="nonzero"/></g><g clip-path="url(#7b0ea95440)"><path fill="#d6d6d6" d="M 49.796875 7.070312 C 49.796875 7.417969 49.832031 7.757812 49.898438 8.097656 C 49.964844 8.433594 50.066406 8.761719 50.195312 9.082031 C 50.328125 9.398438 50.488281 9.699219 50.679688 9.988281 C 50.871094 10.273438 51.089844 10.539062 51.335938 10.78125 C 51.578125 11.027344 51.84375 11.242188 52.128906 11.433594 C 52.414062 11.625 52.71875 11.789062 53.035156 11.921875 C 53.355469 12.050781 53.683594 12.152344 54.019531 12.21875 C 54.359375 12.285156 54.699219 12.320312 55.042969 12.320312 C 55.390625 12.320312 55.730469 12.285156 56.070312 12.21875 C 56.40625 12.152344 56.734375 12.050781 57.054688 11.921875 C 57.371094 11.789062 57.671875 11.625 57.960938 11.433594 C 58.246094 11.242188 58.511719 11.027344 58.753906 10.78125 C 59 10.539062 59.214844 10.273438 59.40625 9.988281 C 59.597656 9.699219 59.761719 9.398438 59.894531 9.082031 C 60.023438 8.761719 60.125 8.433594 60.191406 8.097656 C 60.257812 7.757812 60.292969 7.417969 60.292969 7.070312 C 60.292969 6.726562 60.257812 6.386719 60.191406 6.046875 C 60.125 5.710938 60.023438 5.382812 59.894531 5.0625 C 59.761719 4.746094 59.597656 4.441406 59.40625 4.15625 C 59.214844 3.871094 59 3.605469 58.753906 3.363281 C 58.511719 3.117188 58.246094 2.902344 57.960938 2.710938 C 57.671875 2.519531 57.371094 2.355469 57.054688 2.222656 C 56.734375 2.09375 56.40625 1.992188 56.070312 1.925781 C 55.730469 1.859375 55.390625 1.824219 55.042969 1.824219 C 54.699219 1.824219 54.359375 1.859375 54.019531 1.925781 C 53.683594 1.992188 53.355469 2.09375 53.035156 2.222656 C 52.71875 2.355469 52.414062 2.519531 52.128906 2.710938 C 51.84375 2.902344 51.578125 3.117188 51.335938 3.363281 C 51.089844 3.605469 50.871094 3.871094 50.679688 4.15625 C 50.488281 4.441406 50.328125 4.746094 50.195312 5.0625 C 50.066406 5.382812 49.964844 5.710938 49.898438 6.046875 C 49.832031 6.386719 49.796875 6.726562 49.796875 7.070312 Z M 49.796875 7.070312 " fill-opacity="1" fill-rule="nonzero"/></g><g clip-path="url(#944895c4f5)"><path fill="#d6d6d6" d="M 1.027344 42.328125 C 1.027344 42.675781 1.058594 43.015625 1.128906 43.351562 C 1.195312 43.691406 1.292969 44.019531 1.425781 44.335938 C 1.558594 44.65625 1.71875 44.957031 1.910156 45.246094 C 2.101562 45.53125 2.320312 45.796875 2.5625 46.039062 C 2.808594 46.285156 3.074219 46.5 3.359375 46.691406 C 3.644531 46.882812 3.949219 47.046875 4.265625 47.175781 C 4.585938 47.308594 4.914062 47.410156 5.25 47.476562 C 5.589844 47.542969 5.929688 47.578125 6.273438 47.578125 C 6.617188 47.578125 6.960938 47.542969 7.296875 47.476562 C 7.636719 47.410156 7.964844 47.308594 8.28125 47.175781 C 8.601562 47.046875 8.902344 46.882812 9.191406 46.691406 C 9.476562 46.5 9.742188 46.285156 9.984375 46.039062 C 10.226562 45.796875 10.445312 45.53125 10.636719 45.246094 C 10.828125 44.957031 10.992188 44.65625 11.121094 44.335938 C 11.253906 44.019531 11.355469 43.691406 11.421875 43.351562 C 11.488281 43.015625 11.523438 42.675781 11.523438 42.328125 C 11.523438 41.984375 11.488281 41.644531 11.421875 41.304688 C 11.355469 40.96875 11.253906 40.640625 11.121094 40.320312 C 10.992188 40.003906 10.828125 39.699219 10.636719 39.414062 C 10.445312 39.128906 10.226562 38.863281 9.984375 38.617188 C 9.742188 38.375 9.476562 38.15625 9.191406 37.964844 C 8.902344 37.773438 8.601562 37.613281 8.28125 37.480469 C 7.964844 37.351562 7.636719 37.25 7.296875 37.183594 C 6.960938 37.117188 6.617188 37.082031 6.273438 37.082031 C 5.929688 37.082031 5.589844 37.117188 5.25 37.183594 C 4.914062 37.25 4.585938 37.351562 4.265625 37.480469 C 3.949219 37.613281 3.644531 37.773438 3.359375 37.964844 C 3.074219 38.15625 2.808594 38.375 2.5625 38.617188 C 2.320312 38.863281 2.101562 39.128906 1.910156 39.414062 C 1.71875 39.699219 1.558594 40.003906 1.425781 40.320312 C 1.292969 40.640625 1.195312 40.96875 1.128906 41.304688 C 1.058594 41.644531 1.027344 41.984375 1.027344 42.328125 Z M 1.027344 42.328125 " fill-opacity="1" fill-rule="nonzero"/></g></g></g></g></g></svg>