<svg xmlns="http://www.w3.org/2000/svg" xmlns:xlink="http://www.w3.org/1999/xlink" width="80" zoomAndPan="magnify" viewBox="0 0 60 60" height="80" preserveAspectRatio="xMidYMid meet" version="1.0"><defs><clipPath id="eda78e2d49"><path d="M 0.601562 0.601562 L 59.101562 0.601562 L 59.101562 59.101562 L 0.601562 59.101562 Z M 0.601562 0.601562 " clip-rule="nonzero"/></clipPath></defs><g clip-path="url(#eda78e2d49)"><path fill="#e52d27" d="M 59.101562 50.210938 C 59.101562 55.113281 55.113281 59.101562 50.210938 59.101562 L 9.492188 59.101562 C 4.585938 59.101562 0.601562 55.113281 0.601562 50.210938 L 0.601562 9.492188 C 0.601562 4.585938 4.585938 0.601562 9.492188 0.601562 L 50.210938 0.601562 C 55.113281 0.601562 59.101562 4.585938 59.101562 9.492188 Z M 59.101562 50.210938 " fill-opacity="1" fill-rule="nonzero"/></g><path fill="#ffffff" d="M 50.585938 30.3125 C 50.585938 33.546875 50.585938 36.976562 49.863281 40.109375 C 49.355469 42.316406 47.554688 43.933594 45.378906 44.175781 C 40.242188 44.746094 35.03125 44.757812 29.855469 44.746094 C 24.667969 44.746094 19.480469 44.746094 14.332031 44.175781 C 12.164062 43.933594 10.355469 42.316406 9.847656 40.109375 C 9.125 36.976562 9.125 33.546875 9.125 30.3125 C 9.125 27.078125 9.132812 23.648438 9.847656 20.515625 C 10.355469 18.308594 12.15625 16.691406 14.332031 16.449219 C 19.480469 15.867188 24.675781 15.867188 29.855469 15.867188 C 35.03125 15.867188 40.230469 15.867188 45.378906 16.449219 C 47.542969 16.691406 49.355469 18.308594 49.863281 20.515625 C 50.585938 23.648438 50.585938 27.078125 50.585938 30.3125 Z M 50.585938 30.3125 " fill-opacity="1" fill-rule="nonzero"/><path fill="#e52d27" d="M 25.492188 22.601562 L 25.492188 38.09375 L 37.523438 30.34375 Z M 25.492188 22.601562 " fill-opacity="1" fill-rule="nonzero"/></svg>